<?xml version="1.0" standalone="no"?>
 <!DOCTYPE svg PUBLIC "-//W3C//DTD SVG 1.1//EN" 
 "http://www.w3.org/Graphics/SVG/1.1/DTD/svg11.dtd"> 
<svg xmlns="http://www.w3.org/2000/svg" version="1.1" 
    width="2.85496cm" height="1.9558cm" viewBox="0 0 11240 7700 ">
<title>SVG Picture created as buck-boost-F_Cu.svg date 2013/05/26 17:35:19 </title>
  <desc>Picture generated by PCBNEW </desc>
<g style="fill:#000000; fill-opacity:1;stroke:#000000; stroke-opacity:1;
stroke-linecap:round; stroke-linejoin:round; "
 transform="translate(0 0) scale(1 1)">
</g>
<g style="fill:#000000; fill-opacity:0.0; 
stroke:#000000; stroke-width:59.0551; stroke-opacity:1; 
stroke-linecap:round; stroke-linejoin:round;">
<path d="M7280 287
L7280 387
" />
<path d="M1580 287
L1580 387
" />
<path d="M1580 387
L1580 687
" />
<path d="M7280 287
L1580 287
" />
<path d="M7280 7287
L7280 387
" />
<path d="M1580 7287
L7280 7287
" />
<path d="M1580 687
L1580 7287
" />
</g>
<g style="fill:#000000; fill-opacity:0.0; 
stroke:#000000; stroke-width:19.685; stroke-opacity:1; 
stroke-linecap:round; stroke-linejoin:round;">
</g>
<g style="fill:#000000; fill-opacity:1.0; 
stroke:#000000; stroke-width:19.685; stroke-opacity:1; 
stroke-linecap:round; stroke-linejoin:round;">
<polyline style="fill-rule:evenodd;"
points="3165,2499
2595,2499
2595,1534
3165,1534
3165,2499
" /> 
<polyline style="fill-rule:evenodd;"
points="3165,5840
2595,5840
2595,4875
3165,4875
3165,5840
" /> 
<polyline style="fill-rule:evenodd;"
points="6020,2122
6020,2652
5690,2652
5690,2122
6020,2122
" /> 
<polyline style="fill-rule:evenodd;"
points="5270,2122
5270,2652
4940,2652
4940,2122
5270,2122
" /> 
<polyline style="fill-rule:evenodd;"
points="4940,5652
4940,5122
5270,5122
5270,5652
4940,5652
" /> 
<polyline style="fill-rule:evenodd;"
points="5690,5652
5690,5122
6020,5122
6020,5652
5690,5652
" /> 
<circle cx="5010.56" cy="1287.5" r="360.157" /> 
<circle cx="6150.56" cy="1287.5" r="360.157" /> 
<circle cx="4910.56" cy="6387.5" r="360.157" /> 
<circle cx="6050.56" cy="6387.5" r="360.157" /> 
<polyline style="fill-rule:evenodd;"
points="4820,3427
4820,3367
5040,3367
5040,3427
4820,3427
" /> 
<polyline style="fill-rule:evenodd;"
points="4820,3577
4820,3517
5040,3517
5040,3577
4820,3577
" /> 
<polyline style="fill-rule:evenodd;"
points="4820,3737
4820,3677
5040,3677
5040,3737
4820,3737
" /> 
<polyline style="fill-rule:evenodd;"
points="4820,3897
4820,3837
5040,3837
5040,3897
4820,3897
" /> 
<polyline style="fill-rule:evenodd;"
points="4820,4057
4820,3997
5040,3997
5040,4057
4820,4057
" /> 
<polyline style="fill-rule:evenodd;"
points="4820,4207
4820,4147
5040,4147
5040,4207
4820,4207
" /> 
<polyline style="fill-rule:evenodd;"
points="6140,4147
6140,4207
5920,4207
5920,4147
6140,4147
" /> 
<polyline style="fill-rule:evenodd;"
points="6140,3997
6140,4057
5920,4057
5920,3997
6140,3997
" /> 
<polyline style="fill-rule:evenodd;"
points="6140,3837
6140,3897
5920,3897
5920,3837
6140,3837
" /> 
<polyline style="fill-rule:evenodd;"
points="6140,3677
6140,3737
5920,3737
5920,3677
6140,3677
" /> 
<polyline style="fill-rule:evenodd;"
points="6140,3517
6140,3577
5920,3577
5920,3517
6140,3517
" /> 
<polyline style="fill-rule:evenodd;"
points="6140,3367
6140,3427
5920,3427
5920,3367
6140,3367
" /> 
<polyline style="fill-rule:evenodd;"
points="5160,4212
5160,3362
5800,3362
5800,4212
5160,4212
" /> 
</g>
<g style="fill:#000000; fill-opacity:1.0; 
stroke:#000000; stroke-width:100; stroke-opacity:1; 
stroke-linecap:round; stroke-linejoin:round;">
<path d="M6170 3397
L6880 2687
" />
<path d="M6880 2687
L6880 887
" />
<path d="M6880 887
L6580 587
" />
<path d="M6580 587
L5380 587
" />
<path d="M5380 587
L4980 987
" />
<path d="M4980 987
L4980 1387
" />
<path d="M4980 1387
L5010 1287
" />
<path d="M6880 887
L6880 2687
" />
</g>
<g style="fill:#000000; fill-opacity:1.0; 
stroke:#000000; stroke-width:82.6772; stroke-opacity:1; 
stroke-linecap:round; stroke-linejoin:round;">
<path d="M6170 3397
L6030 3397
" />
</g>
<g style="fill:#000000; fill-opacity:1.0; 
stroke:#000000; stroke-width:100; stroke-opacity:1; 
stroke-linecap:round; stroke-linejoin:round;">
<path d="M4480 3187
L4480 2687
" />
<path d="M4980 987
L5010 1087
" />
</g>
<g style="fill:#000000; fill-opacity:1.0; 
stroke:#000000; stroke-width:82.6772; stroke-opacity:1; 
stroke-linecap:round; stroke-linejoin:round;">
<path d="M4980 1087
L5010 1087
" />
</g>
<g style="fill:#000000; fill-opacity:1.0; 
stroke:#000000; stroke-width:196.85; stroke-opacity:1; 
stroke-linecap:round; stroke-linejoin:round;">
<path d="M5105 2387
L5105 1212
" />
<path d="M5105 1212
L4980 1087
" />
</g>
<g style="fill:#000000; fill-opacity:1.0; 
stroke:#000000; stroke-width:100; stroke-opacity:1; 
stroke-linecap:round; stroke-linejoin:round;">
<path d="M4980 1087
L5010 1087
" />
<path d="M4980 1087
L5010 1087
" />
<path d="M4930 3397
L4690 3397
" />
<path d="M5080 2387
L5105 2387
" />
</g>
<g style="fill:#000000; fill-opacity:1.0; 
stroke:#000000; stroke-width:196.85; stroke-opacity:1; 
stroke-linecap:round; stroke-linejoin:round;">
<path d="M4480 2687
L4780 2387
" />
<path d="M4780 2387
L5080 2387
" />
</g>
<g style="fill:#000000; fill-opacity:1.0; 
stroke:#000000; stroke-width:100; stroke-opacity:1; 
stroke-linecap:round; stroke-linejoin:round;">
<path d="M4690 3397
L4480 3187
" />
<path d="M5105 5387
L5105 5162
" />
<path d="M5105 5162
L5480 4787
" />
<path d="M6740 3547
L6290 3547
" />
<path d="M4910 6387
L4910 6517
" />
<path d="M4910 6517
L5380 6987
" />
<path d="M5380 6987
L6480 6987
" />
<path d="M6480 6987
L6880 6587
" />
<path d="M6880 6587
L6880 3687
" />
<path d="M6880 3687
L6740 3547
" />
<path d="M6180 4287
L6180 4487
" />
<path d="M6180 4487
L5880 4787
" />
<path d="M5880 4787
L5480 4787
" />
<path d="M5480 4787
L5080 5187
" />
<path d="M5080 5187
L5105 5387
" />
</g>
<g style="fill:#000000; fill-opacity:1.0; 
stroke:#000000; stroke-width:82.6772; stroke-opacity:1; 
stroke-linecap:round; stroke-linejoin:round;">
<path d="M6030 3547
L6280 3547
" />
<path d="M6880 6587
L6480 6987
" />
<path d="M6740 3547
L6880 3687
" />
</g>
<g style="fill:#000000; fill-opacity:1.0; 
stroke:#000000; stroke-width:196.85; stroke-opacity:1; 
stroke-linecap:round; stroke-linejoin:round;">
<path d="M4910 6387
L4910 5657
" />
</g>
<g style="fill:#000000; fill-opacity:1.0; 
stroke:#000000; stroke-width:82.6772; stroke-opacity:1; 
stroke-linecap:round; stroke-linejoin:round;">
<path d="M5180 5387
L5105 5387
" />
</g>
<g style="fill:#000000; fill-opacity:1.0; 
stroke:#000000; stroke-width:196.85; stroke-opacity:1; 
stroke-linecap:round; stroke-linejoin:round;">
<path d="M4910 5657
L5180 5387
" />
</g>
<g style="fill:#000000; fill-opacity:1.0; 
stroke:#000000; stroke-width:82.6772; stroke-opacity:1; 
stroke-linecap:round; stroke-linejoin:round;">
<path d="M4930 4027
L4740 4027
" />
<path d="M4980 5487
L5105 5387
" />
</g>
<g style="fill:#000000; fill-opacity:1.0; 
stroke:#000000; stroke-width:100; stroke-opacity:1; 
stroke-linecap:round; stroke-linejoin:round;">
<path d="M4740 4027
L4580 4187
" />
</g>
<g style="fill:#000000; fill-opacity:1.0; 
stroke:#000000; stroke-width:196.85; stroke-opacity:1; 
stroke-linecap:round; stroke-linejoin:round;">
<path d="M4930 4177
L4790 4177
" />
</g>
<g style="fill:#000000; fill-opacity:1.0; 
stroke:#000000; stroke-width:82.6772; stroke-opacity:1; 
stroke-linecap:round; stroke-linejoin:round;">
<path d="M4980 5287
L5105 5387
" />
</g>
<g style="fill:#000000; fill-opacity:1.0; 
stroke:#000000; stroke-width:196.85; stroke-opacity:1; 
stroke-linecap:round; stroke-linejoin:round;">
<path d="M4790 4177
L4680 4287
" />
</g>
<g style="fill:#000000; fill-opacity:1.0; 
stroke:#000000; stroke-width:82.6772; stroke-opacity:1; 
stroke-linecap:round; stroke-linejoin:round;">
<path d="M6030 4177
L6070 4177
" />
<path d="M5080 5287
L5105 5387
" />
<path d="M5080 5187
L5080 5287
" />
<path d="M5480 4787
L5080 5187
" />
<path d="M5880 4787
L5480 4787
" />
<path d="M6180 4487
L5880 4787
" />
<path d="M6070 4177
L6180 4287
" />
</g>
<g style="fill:#000000; fill-opacity:1.0; 
stroke:#000000; stroke-width:157.48; stroke-opacity:1; 
stroke-linecap:round; stroke-linejoin:round;">
<path d="M4580 5087
L4980 5487
" />
<path d="M4580 4187
L4580 5087
" />
<path d="M4680 4987
L4980 5287
" />
<path d="M4680 4287
L4680 4987
" />
</g>
<g style="fill:#000000; fill-opacity:1.0; 
stroke:#000000; stroke-width:100; stroke-opacity:1; 
stroke-linecap:round; stroke-linejoin:round;">
<path d="M5855 2387
L5855 2512
" />
<path d="M5855 2512
L5280 3087
" />
<path d="M5280 3487
L5480 3787
" />
<path d="M5280 3087
L5280 3487
" />
<path d="M5680 4387
L5680 4187
" />
<path d="M5680 4187
L5480 3787
" />
<path d="M5280 4387
L5280 4187
" />
<path d="M5280 4187
L5480 3787
" />
<path d="M5855 2512
L5480 2887
" />
<path d="M5855 2387
L5855 2812
" />
<path d="M5680 3387
L5480 3787
" />
<path d="M5680 2987
L5680 3387
" />
<path d="M5855 2812
L5680 2987
" />
</g>
<g style="fill:#000000; fill-opacity:1.0; 
stroke:#000000; stroke-width:82.6772; stroke-opacity:1; 
stroke-linecap:round; stroke-linejoin:round;">
<path d="M4930 3707
L3200 3707
" />
<path d="M3200 3707
L3180 3687
" />
<path d="M4930 3707
L5260 3707
" />
<path d="M5260 3707
L5280 3687
" />
<path d="M5280 3687
L5480 3787
" />
<path d="M6050 6387
L6050 5657
" />
<path d="M5780 5387
L5855 5387
" />
<path d="M6050 5657
L5780 5387
" />
</g>
<g style="fill:#000000; fill-opacity:1.0; 
stroke:#000000; stroke-width:100; stroke-opacity:1; 
stroke-linecap:round; stroke-linejoin:round;">
<path d="M6030 3707
L6500 3707
" />
</g>
<g style="fill:#000000; fill-opacity:1.0; 
stroke:#000000; stroke-width:82.6772; stroke-opacity:1; 
stroke-linecap:round; stroke-linejoin:round;">
<path d="M5880 5487
L5855 5387
" />
<path d="M6180 5487
L5880 5487
" />
<path d="M6680 4987
L6180 5487
" />
<path d="M6680 3887
L6680 4987
" />
</g>
<g style="fill:#000000; fill-opacity:1.0; 
stroke:#000000; stroke-width:100; stroke-opacity:1; 
stroke-linecap:round; stroke-linejoin:round;">
<path d="M6500 3707
L6680 3887
" />
</g>
<g style="fill:#000000; fill-opacity:1.0; 
stroke:#000000; stroke-width:196.85; stroke-opacity:1; 
stroke-linecap:round; stroke-linejoin:round;">
<path d="M6030 3867
L6460 3867
" />
</g>
<g style="fill:#000000; fill-opacity:1.0; 
stroke:#000000; stroke-width:82.6772; stroke-opacity:1; 
stroke-linecap:round; stroke-linejoin:round;">
<path d="M6460 3867
L6580 3987
" />
<path d="M6580 3987
L6580 4887
" />
<path d="M6580 4887
L6080 5387
" />
<path d="M6080 5387
L5855 5387
" />
</g>
<g style="fill:#000000; fill-opacity:1.0; 
stroke:#000000; stroke-width:100; stroke-opacity:1; 
stroke-linecap:round; stroke-linejoin:round;">
<path d="M6030 4027
L6420 4027
" />
</g>
<g style="fill:#000000; fill-opacity:1.0; 
stroke:#000000; stroke-width:82.6772; stroke-opacity:1; 
stroke-linecap:round; stroke-linejoin:round;">
<path d="M5880 5287
L5855 5387
" />
<path d="M5980 5287
L5880 5287
" />
<path d="M6480 4787
L5980 5287
" />
<path d="M6480 4087
L6480 4787
" />
<path d="M6420 4027
L6480 4087
" />
</g>
<g style="fill:#000000; fill-opacity:1.0; 
stroke:#000000; stroke-width:100; stroke-opacity:1; 
stroke-linecap:round; stroke-linejoin:round;">
<path d="M6030 4027
L5620 4027
" />
<path d="M5620 4027
L5580 3987
" />
<path d="M5580 3987
L5480 3787
" />
<path d="M6030 3867
L5600 3867
" />
<path d="M5600 3867
L5580 3887
" />
<path d="M5580 3887
L5480 3787
" />
<path d="M6030 3707
L5700 3707
" />
<path d="M5700 3707
L5680 3687
" />
<path d="M5680 3687
L5480 3787
" />
<path d="M5855 2387
L5855 1312
" />
<path d="M6080 1087
L6150 1087
" />
<path d="M5855 1312
L6080 1087
" />
</g>
<g style="fill:#000000; fill-opacity:1.0; 
stroke:#000000; stroke-width:157.48; stroke-opacity:1; 
stroke-linecap:round; stroke-linejoin:round;">
<path d="M2880 5357
L2880 5287
" />
<path d="M2880 5287
L4180 3987
" />
</g>
<g style="fill:#000000; fill-opacity:1.0; 
stroke:#000000; stroke-width:100; stroke-opacity:1; 
stroke-linecap:round; stroke-linejoin:round;">
<path d="M4480 3867
L4300 3867
" />
<path d="M4300 3867
L4180 3987
" />
<path d="M4300 3867
L4180 3987
" />
</g>
<g style="fill:#000000; fill-opacity:1.0; 
stroke:#000000; stroke-width:82.6772; stroke-opacity:1; 
stroke-linecap:round; stroke-linejoin:round;">
<path d="M4930 3867
L4480 3867
" />
</g>
<g style="fill:#000000; fill-opacity:1.0; 
stroke:#000000; stroke-width:157.48; stroke-opacity:1; 
stroke-linecap:round; stroke-linejoin:round;">
<path d="M2880 2017
L2880 2337
" />
<path d="M4080 3537
L4140 3537
" />
<path d="M2880 2337
L4080 3537
" />
</g>
<g style="fill:#000000; fill-opacity:1.0; 
stroke:#000000; stroke-width:100; stroke-opacity:1; 
stroke-linecap:round; stroke-linejoin:round;">
<path d="M4480 3547
L4140 3547
" />
</g>
<g style="fill:#000000; fill-opacity:1.0; 
stroke:#000000; stroke-width:82.6772; stroke-opacity:1; 
stroke-linecap:round; stroke-linejoin:round;">
<path d="M4930 3547
L4480 3547
" />
</g>
<g style="fill:#000000; fill-opacity:1.0; 
stroke:#000000; stroke-width:100; stroke-opacity:1; 
stroke-linecap:round; stroke-linejoin:round;">
<path d="M4140 3547
L4140 3547
" />
<path d="M4140 3547
L4080 3487
" />
<path d="M2780 2187
L2880 2017
" />
<path d="M4140 3547
L4080 3487
" />
<path d="M4080 3487
L2780 2187
" />
</g>
<g style="fill:#000000; fill-opacity:1.0; 
stroke:#000000; stroke-width:82.6772; stroke-opacity:1; 
stroke-linecap:round; stroke-linejoin:round;">
<path d="M4930 3547
L4440 3547
" />
</g>
<g style="fill:#000000; fill-opacity:1.0; 
stroke:#000000; stroke-width:19.685; stroke-opacity:1; 
stroke-linecap:round; stroke-linejoin:round;">
<polyline style="fill-rule:evenodd;"
points="6724,2622
6635,2712
6635,1307
6605,1120
6590,1083
6534,1036
6401,1169
6401,903
6354,847
6170,802
5983,832
5946,847
5899,903
6150,1154
6401,903
6401,1169
6283,1287
6534,1538
6590,1491
6635,1307
6635,2712
6401,2946
6401,1671
6150,1420
6017,1553
6017,1287
5766,1036
5710,1083
5665,1267
5695,1454
5710,1491
5766,1538
6017,1287
6017,1553
5899,1671
5946,1727
6130,1772
6317,1742
6354,1727
6401,1671
6401,2946
6136,3211
6136,2641
6136,2133
6136,2091
6120,2052
6090,2022
6051,2006
5969,2006
5943,2033
5943,2293
6109,2293
6136,2266
6136,2133
6136,2641
6136,2508
6109,2481
5943,2481
5943,2741
5969,2768
6051,2768
6090,2752
6120,2722
6136,2683
6136,2641
6136,3211
6097,3250
6030,3250
6023,3251
5889,3251
5866,3261
5831,3246
5768,3246
5768,2741
5768,2481
5768,2293
5768,2033
5741,2006
5659,2006
5620,2022
5590,2052
5574,2091
5574,2133
5574,2266
5601,2293
5768,2293
5768,2481
5601,2481
5574,2508
5574,2641
5574,2683
5590,2722
5620,2752
5659,2768
5741,2768
5768,2741
5768,3246
5601,3246
5574,3273
5574,3693
5582,3693
5582,3881
5574,3881
5574,4301
5601,4328
5831,4328
5866,4313
5889,4323
5931,4323
6008,4323
6024,4339
6024,4422
5815,4631
5480,4631
5420,4643
5395,4660
5370,4677
5040,5006
4960,5006
4865,4911
4865,4391
4875,4381
4930,4381
5008,4366
5075,4321
5075,4321
5094,4313
5129,4328
5359,4328
5386,4301
5386,3881
5378,3881
5378,3693
5386,3693
5386,3273
5359,3246
5129,3246
5094,3261
5071,3251
5029,3251
4980,3251
4930,3241
4755,3241
4636,3122
4636,2820
4824,2632
4824,2683
4840,2722
4870,2752
4909,2768
4951,2768
5301,2768
5340,2752
5370,2722
5386,2683
5386,2641
5386,2091
5370,2052
5340,2022
5309,2010
5309,1661
5413,1557
5486,1382
5486,1193
5414,1018
5292,896
5445,743
6515,743
6724,952
6724,2622
" /> 
</g>
<g style="fill:#000000; fill-opacity:0.0; 
stroke:#000000; stroke-width:11.811; stroke-opacity:1; 
stroke-linecap:round; stroke-linejoin:round;">
<polyline fill="none;"
points="6724,2622
6635,2712
6635,1307
6605,1120
6590,1083
6534,1036
6401,1169
6401,903
6354,847
6170,802
5983,832
5946,847
5899,903
6150,1154
6401,903
6401,1169
6283,1287
6534,1538
6590,1491
6635,1307
6635,2712
6401,2946
6401,1671
6150,1420
6017,1553
6017,1287
5766,1036
5710,1083
5665,1267
5695,1454
5710,1491
5766,1538
6017,1287
6017,1553
5899,1671
5946,1727
6130,1772
6317,1742
6354,1727
6401,1671
6401,2946
6136,3211
6136,2641
6136,2133
6136,2091
6120,2052
6090,2022
6051,2006
5969,2006
5943,2033
5943,2293
6109,2293
6136,2266
6136,2133
6136,2641
6136,2508
6109,2481
5943,2481
5943,2741
5969,2768
6051,2768
6090,2752
6120,2722
6136,2683
6136,2641
6136,3211
6097,3250
6030,3250
6023,3251
5889,3251
5866,3261
5831,3246
5768,3246
5768,2741
5768,2481
5768,2293
5768,2033
5741,2006
5659,2006
5620,2022
5590,2052
5574,2091
5574,2133
5574,2266
5601,2293
5768,2293
5768,2481
5601,2481
5574,2508
5574,2641
5574,2683
5590,2722
5620,2752
5659,2768
5741,2768
5768,2741
5768,3246
5601,3246
5574,3273
5574,3693
5582,3693
5582,3881
5574,3881
5574,4301
5601,4328
5831,4328
5866,4313
5889,4323
5931,4323
6008,4323
6024,4339
6024,4422
5815,4631
5480,4631
5420,4643
5395,4660
5370,4677
5040,5006
4960,5006
4865,4911
4865,4391
4875,4381
4930,4381
5008,4366
5075,4321
5075,4321
5094,4313
5129,4328
5359,4328
5386,4301
5386,3881
5378,3881
5378,3693
5386,3693
5386,3273
5359,3246
5129,3246
5094,3261
5071,3251
5029,3251
4980,3251
4930,3241
4755,3241
4636,3122
4636,2820
4824,2632
4824,2683
4840,2722
4870,2752
4909,2768
4951,2768
5301,2768
5340,2752
5370,2722
5386,2683
5386,2641
5386,2091
5370,2052
5340,2022
5309,2010
5309,1661
5413,1557
5486,1382
5486,1193
5414,1018
5292,896
5445,743
6515,743
6724,952
6724,2622
" /> 
</g>
<g style="fill:#000000; fill-opacity:1.0; 
stroke:#000000; stroke-width:19.685; stroke-opacity:1; 
stroke-linecap:round; stroke-linejoin:round;">
<polyline style="fill-rule:evenodd;"
points="6724,6522
6535,6712
6535,6407
6505,6220
6490,6183
6434,6136
6301,6269
6301,6003
6254,5947
6136,5918
6136,5641
6136,5133
6136,5091
6120,5052
6090,5022
6051,5006
5969,5006
5943,5033
5943,5293
6109,5293
6136,5266
6136,5133
6136,5641
6136,5508
6109,5481
5943,5481
5943,5741
5969,5768
6051,5768
6090,5752
6120,5722
6136,5683
6136,5641
6136,5918
6070,5902
5883,5932
5846,5947
5799,6003
6050,6254
6301,6003
6301,6269
6183,6387
6434,6638
6490,6591
6535,6407
6535,6712
6415,6831
6245,6831
6254,6827
6301,6771
6050,6520
5917,6653
5917,6387
5768,6238
5768,5741
5768,5481
5768,5293
5768,5033
5741,5006
5659,5006
5620,5022
5590,5052
5574,5091
5574,5133
5574,5266
5601,5293
5768,5293
5768,5481
5601,5481
5574,5508
5574,5641
5574,5683
5590,5722
5620,5752
5659,5768
5741,5768
5768,5741
5768,6238
5666,6136
5610,6183
5565,6367
5595,6554
5610,6591
5666,6638
5917,6387
5917,6653
5799,6771
5846,6827
5862,6831
5445,6831
5292,6678
5313,6657
5386,6482
5386,6293
5314,6118
5180,5984
5114,5957
5114,5768
5301,5768
5340,5752
5370,5722
5386,5683
5386,5641
5386,5102
5545,4943
5880,4943
5940,4931
5940,4931
5990,4897
6290,4597
6290,4597
6324,4547
6336,4487
6336,4487
6336,4287
6324,4227
6290,4177
6256,4154
6256,4116
6250,4102
6256,4088
6256,4073
6256,3981
6256,3966
6248,3947
6256,3928
6256,3913
6256,3821
6256,3806
6248,3787
6256,3768
6256,3753
6229,3727
6185,3727
6171,3721
6117,3721
6111,3727
6090,3727
6090,3748
6090,3826
6090,3847
6111,3847
6117,3853
6171,3853
6185,3847
6229,3847
6256,3821
6256,3913
6229,3887
6185,3887
6171,3881
6117,3881
6111,3887
6090,3887
6090,3908
6090,3986
6090,4007
6111,4007
6117,4013
6171,4013
6185,4007
6229,4007
6256,3981
6256,4073
6229,4047
6209,4047
6171,4031
6129,4031
6077,4031
6070,4030
6030,4030
6023,4031
5928,4031
5928,4013
5944,4013
5949,4007
5970,4007
5970,3986
5970,3908
5970,3887
5949,3887
5944,3881
5916,3881
5916,3853
5944,3853
5949,3847
5970,3847
5970,3826
5970,3748
5970,3727
5949,3727
5944,3721
5916,3721
5916,3693
5931,3693
6023,3693
6030,3694
6247,3694
6290,3703
6675,3703
6724,3752
6724,6522
" /> 
</g>
<g style="fill:#000000; fill-opacity:0.0; 
stroke:#000000; stroke-width:11.811; stroke-opacity:1; 
stroke-linecap:round; stroke-linejoin:round;">
<polyline fill="none;"
points="6724,6522
6535,6712
6535,6407
6505,6220
6490,6183
6434,6136
6301,6269
6301,6003
6254,5947
6136,5918
6136,5641
6136,5133
6136,5091
6120,5052
6090,5022
6051,5006
5969,5006
5943,5033
5943,5293
6109,5293
6136,5266
6136,5133
6136,5641
6136,5508
6109,5481
5943,5481
5943,5741
5969,5768
6051,5768
6090,5752
6120,5722
6136,5683
6136,5641
6136,5918
6070,5902
5883,5932
5846,5947
5799,6003
6050,6254
6301,6003
6301,6269
6183,6387
6434,6638
6490,6591
6535,6407
6535,6712
6415,6831
6245,6831
6254,6827
6301,6771
6050,6520
5917,6653
5917,6387
5768,6238
5768,5741
5768,5481
5768,5293
5768,5033
5741,5006
5659,5006
5620,5022
5590,5052
5574,5091
5574,5133
5574,5266
5601,5293
5768,5293
5768,5481
5601,5481
5574,5508
5574,5641
5574,5683
5590,5722
5620,5752
5659,5768
5741,5768
5768,5741
5768,6238
5666,6136
5610,6183
5565,6367
5595,6554
5610,6591
5666,6638
5917,6387
5917,6653
5799,6771
5846,6827
5862,6831
5445,6831
5292,6678
5313,6657
5386,6482
5386,6293
5314,6118
5180,5984
5114,5957
5114,5768
5301,5768
5340,5752
5370,5722
5386,5683
5386,5641
5386,5102
5545,4943
5880,4943
5940,4931
5940,4931
5990,4897
6290,4597
6290,4597
6324,4547
6336,4487
6336,4487
6336,4287
6324,4227
6290,4177
6256,4154
6256,4116
6250,4102
6256,4088
6256,4073
6256,3981
6256,3966
6248,3947
6256,3928
6256,3913
6256,3821
6256,3806
6248,3787
6256,3768
6256,3753
6229,3727
6185,3727
6171,3721
6117,3721
6111,3727
6090,3727
6090,3748
6090,3826
6090,3847
6111,3847
6117,3853
6171,3853
6185,3847
6229,3847
6256,3821
6256,3913
6229,3887
6185,3887
6171,3881
6117,3881
6111,3887
6090,3887
6090,3908
6090,3986
6090,4007
6111,4007
6117,4013
6171,4013
6185,4007
6229,4007
6256,3981
6256,4073
6229,4047
6209,4047
6171,4031
6129,4031
6077,4031
6070,4030
6030,4030
6023,4031
5928,4031
5928,4013
5944,4013
5949,4007
5970,4007
5970,3986
5970,3908
5970,3887
5949,3887
5944,3881
5916,3881
5916,3853
5944,3853
5949,3847
5970,3847
5970,3826
5970,3748
5970,3727
5949,3727
5944,3721
5916,3721
5916,3693
5931,3693
6023,3693
6030,3694
6247,3694
6290,3703
6675,3703
6724,3752
6724,6522
" /> 
</g>
<g style="fill:#000000; fill-opacity:1.0; 
stroke:#000000; stroke-width:19.685; stroke-opacity:1; 
stroke-linecap:round; stroke-linejoin:round;">
<polyline style="fill-rule:evenodd;"
points="7145,7152
7036,7152
7036,6587
7036,3687
7024,3627
7024,3627
7007,3602
6990,3577
6990,3577
6850,3437
6800,3403
6740,3391
6396,3391
6990,2797
6990,2797
7024,2747
7036,2687
7036,2687
7036,887
7036,887
7024,827
6990,777
6990,777
6690,477
6640,443
6580,431
5380,431
5320,443
5270,477
4936,811
4916,811
4741,883
4607,1017
4534,1192
4534,1381
4606,1556
4740,1690
4901,1757
4901,2010
4870,2022
4840,2052
4824,2091
4824,2133
4824,2183
4780,2183
4702,2198
4636,2243
4336,2543
4291,2609
4276,2687
4291,2765
4324,2814
4324,3187
4336,3247
4370,3297
4464,3391
4248,3391
4211,3366
4172,3359
3281,2468
3281,1504
3265,1465
3235,1435
3196,1419
3154,1419
2564,1419
2525,1435
2495,1464
2479,1503
2479,1546
2479,2530
2495,2569
2525,2599
2564,2615
2606,2615
2897,2615
3949,3667
3949,3667
4009,3708
4080,3722
4080,3722
4140,3722
4211,3708
4218,3703
4480,3703
4524,3694
4930,3694
4937,3693
5044,3693
5044,3721
5029,3721
4937,3721
4930,3720
4524,3720
4480,3711
4300,3711
4240,3723
4190,3757
4135,3811
4109,3816
4049,3856
3147,4759
2564,4759
2525,4775
2495,4805
2479,4844
2479,4886
2479,5870
2495,5909
2525,5939
2564,5955
2606,5955
3196,5955
3235,5939
3265,5910
3281,5871
3281,5828
3281,5147
4311,4118
4351,4058
4356,4032
4365,4023
4480,4023
4508,4017
4449,4056
4409,4116
4395,4187
4395,5087
4409,5158
4449,5218
4757,5525
4721,5579
4706,5657
4706,5956
4641,5983
4507,6117
4434,6292
4434,6481
4506,6656
4640,6790
4815,6863
5004,6863
5026,6854
5270,7097
5320,7131
5320,7131
5380,7143
6480,7143
6540,7131
6540,7131
6590,7097
6990,6697
6990,6697
7024,6647
7036,6587
7036,6587
7036,7152
1715,7152
1715,687
1715,422
7145,422
7145,7152
" /> 
</g>
<g style="fill:#000000; fill-opacity:0.0; 
stroke:#000000; stroke-width:11.811; stroke-opacity:1; 
stroke-linecap:round; stroke-linejoin:round;">
<polyline fill="none;"
points="7145,7152
7036,7152
7036,6587
7036,3687
7024,3627
7024,3627
7007,3602
6990,3577
6990,3577
6850,3437
6800,3403
6740,3391
6396,3391
6990,2797
6990,2797
7024,2747
7036,2687
7036,2687
7036,887
7036,887
7024,827
6990,777
6990,777
6690,477
6640,443
6580,431
5380,431
5320,443
5270,477
4936,811
4916,811
4741,883
4607,1017
4534,1192
4534,1381
4606,1556
4740,1690
4901,1757
4901,2010
4870,2022
4840,2052
4824,2091
4824,2133
4824,2183
4780,2183
4702,2198
4636,2243
4336,2543
4291,2609
4276,2687
4291,2765
4324,2814
4324,3187
4336,3247
4370,3297
4464,3391
4248,3391
4211,3366
4172,3359
3281,2468
3281,1504
3265,1465
3235,1435
3196,1419
3154,1419
2564,1419
2525,1435
2495,1464
2479,1503
2479,1546
2479,2530
2495,2569
2525,2599
2564,2615
2606,2615
2897,2615
3949,3667
3949,3667
4009,3708
4080,3722
4080,3722
4140,3722
4211,3708
4218,3703
4480,3703
4524,3694
4930,3694
4937,3693
5044,3693
5044,3721
5029,3721
4937,3721
4930,3720
4524,3720
4480,3711
4300,3711
4240,3723
4190,3757
4135,3811
4109,3816
4049,3856
3147,4759
2564,4759
2525,4775
2495,4805
2479,4844
2479,4886
2479,5870
2495,5909
2525,5939
2564,5955
2606,5955
3196,5955
3235,5939
3265,5910
3281,5871
3281,5828
3281,5147
4311,4118
4351,4058
4356,4032
4365,4023
4480,4023
4508,4017
4449,4056
4409,4116
4395,4187
4395,5087
4409,5158
4449,5218
4757,5525
4721,5579
4706,5657
4706,5956
4641,5983
4507,6117
4434,6292
4434,6481
4506,6656
4640,6790
4815,6863
5004,6863
5026,6854
5270,7097
5320,7131
5320,7131
5380,7143
6480,7143
6540,7131
6540,7131
6590,7097
6990,6697
6990,6697
7024,6647
7036,6587
7036,6587
7036,7152
1715,7152
1715,687
1715,422
7145,422
7145,7152
" /> 
</g>
<g style="fill:#FFFFFF; fill-opacity:0.0; 
stroke:#FFFFFF; stroke-width:19.685; stroke-opacity:1; 
stroke-linecap:round; stroke-linejoin:round;">
</g>
<g style="fill:#FFFFFF; fill-opacity:1.0; 
stroke:#FFFFFF; stroke-width:19.685; stroke-opacity:1; 
stroke-linecap:round; stroke-linejoin:round;">
<circle cx="5010.56" cy="1287.5" r="190.157" /> 
<circle cx="6150.56" cy="1287.5" r="190.157" /> 
<circle cx="4910.56" cy="6387.5" r="190.157" /> 
<circle cx="6050.56" cy="6387.5" r="190.157" /> 
</g> 
</svg>
