<?xml version="1.0" standalone="no"?>
 <!DOCTYPE svg PUBLIC "-//W3C//DTD SVG 1.1//EN" 
 "http://www.w3.org/Graphics/SVG/1.1/DTD/svg11.dtd"> 
<svg xmlns="http://www.w3.org/2000/svg" version="1.1" 
    width="2.85496cm" height="1.9558cm" viewBox="0 0 11240 7700 ">
<title>SVG Picture created as buck-boost-F_Mask.svg date 2013/05/26 17:35:19 </title>
  <desc>Picture generated by PCBNEW </desc>
<g style="fill:#000000; fill-opacity:1;stroke:#000000; stroke-opacity:1;
stroke-linecap:round; stroke-linejoin:round; "
 transform="translate(0 0) scale(1 1)">
</g>
<g style="fill:#000000; fill-opacity:0.0; 
stroke:#000000; stroke-width:59.0551; stroke-opacity:1; 
stroke-linecap:round; stroke-linejoin:round;">
<path d="M7280 287
L7280 387
" />
<path d="M1580 287
L1580 387
" />
<path d="M1580 387
L1580 687
" />
<path d="M7280 287
L1580 287
" />
<path d="M7280 7287
L7280 387
" />
<path d="M1580 7287
L7280 7287
" />
<path d="M1580 687
L1580 7287
" />
</g>
<g style="fill:#000000; fill-opacity:0.0; 
stroke:#000000; stroke-width:19.685; stroke-opacity:1; 
stroke-linecap:round; stroke-linejoin:round;">
</g>
<g style="fill:#000000; fill-opacity:1.0; 
stroke:#000000; stroke-width:19.685; stroke-opacity:1; 
stroke-linecap:round; stroke-linejoin:round;">
<polyline style="fill-rule:evenodd;"
points="3244,2578
2516,2578
2516,1456
3244,1456
3244,2578
" /> 
<polyline style="fill-rule:evenodd;"
points="3244,5918
2516,5918
2516,4796
3244,4796
3244,5918
" /> 
<polyline style="fill-rule:evenodd;"
points="6099,2043
6099,2731
5611,2731
5611,2043
6099,2043
" /> 
<polyline style="fill-rule:evenodd;"
points="5349,2043
5349,2731
4861,2731
4861,2043
5349,2043
" /> 
<polyline style="fill-rule:evenodd;"
points="4861,5731
4861,5043
5349,5043
5349,5731
4861,5731
" /> 
<polyline style="fill-rule:evenodd;"
points="5611,5731
5611,5043
6099,5043
6099,5731
5611,5731
" /> 
<circle cx="5010.56" cy="1287.5" r="438.898" /> 
<circle cx="6150.56" cy="1287.5" r="438.898" /> 
<circle cx="4910.56" cy="6387.5" r="438.898" /> 
<circle cx="6050.56" cy="6387.5" r="438.898" /> 
<polyline style="fill-rule:evenodd;"
points="4741,3506
4741,3288
5119,3288
5119,3506
4741,3506
" /> 
<polyline style="fill-rule:evenodd;"
points="4741,3656
4741,3438
5119,3438
5119,3656
4741,3656
" /> 
<polyline style="fill-rule:evenodd;"
points="4741,3816
4741,3598
5119,3598
5119,3816
4741,3816
" /> 
<polyline style="fill-rule:evenodd;"
points="4741,3976
4741,3758
5119,3758
5119,3976
4741,3976
" /> 
<polyline style="fill-rule:evenodd;"
points="4741,4136
4741,3918
5119,3918
5119,4136
4741,4136
" /> 
<polyline style="fill-rule:evenodd;"
points="4741,4286
4741,4068
5119,4068
5119,4286
4741,4286
" /> 
<polyline style="fill-rule:evenodd;"
points="6219,4068
6219,4286
5841,4286
5841,4068
6219,4068
" /> 
<polyline style="fill-rule:evenodd;"
points="6219,3918
6219,4136
5841,4136
5841,3918
6219,3918
" /> 
<polyline style="fill-rule:evenodd;"
points="6219,3758
6219,3976
5841,3976
5841,3758
6219,3758
" /> 
<polyline style="fill-rule:evenodd;"
points="6219,3598
6219,3816
5841,3816
5841,3598
6219,3598
" /> 
<polyline style="fill-rule:evenodd;"
points="6219,3438
6219,3656
5841,3656
5841,3438
6219,3438
" /> 
<polyline style="fill-rule:evenodd;"
points="6219,3288
6219,3506
5841,3506
5841,3288
6219,3288
" /> 
<polyline style="fill-rule:evenodd;"
points="5081,4291
5081,3283
5879,3283
5879,4291
5081,4291
" /> 
</g> 
</svg>
