<?xml version="1.0" encoding="UTF-8" standalone="no"?>
<svg
   xmlns:dc="http://purl.org/dc/elements/1.1/"
   xmlns:cc="http://creativecommons.org/ns#"
   xmlns:rdf="http://www.w3.org/1999/02/22-rdf-syntax-ns#"
   xmlns:svg="http://www.w3.org/2000/svg"
   xmlns="http://www.w3.org/2000/svg"
   xmlns:sodipodi="http://sodipodi.sourceforge.net/DTD/sodipodi-0.dtd"
   xmlns:inkscape="http://www.inkscape.org/namespaces/inkscape"
   version="1.1"
   width="41.9989cm"
   height="29.7002cm"
   viewBox="0 0 165350 116930 "
   id="svg2"
   inkscape:version="0.48.4 r9939"
   sodipodi:docname="RC_StellarisBoard-F_Mask.svg">
  <metadata
     id="metadata1052">
    <rdf:RDF>
      <cc:Work
         rdf:about="">
        <dc:format>image/svg+xml</dc:format>
        <dc:type
           rdf:resource="http://purl.org/dc/dcmitype/StillImage" />
      </cc:Work>
    </rdf:RDF>
  </metadata>
  <defs
     id="defs1050" />
  <sodipodi:namedview
     pagecolor="#ffffff"
     bordercolor="#666666"
     borderopacity="1"
     objecttolerance="10"
     gridtolerance="10"
     guidetolerance="10"
     inkscape:pageopacity="0"
     inkscape:pageshadow="2"
     inkscape:window-width="1280"
     inkscape:window-height="753"
     id="namedview1048"
     showgrid="false"
     inkscape:zoom="2.2047343"
     inkscape:cx="394.65774"
     inkscape:cy="683.92629"
     inkscape:window-x="-2"
     inkscape:window-y="-3"
     inkscape:window-maximized="1"
     inkscape:current-layer="svg2" />
  <title
     id="title4">SVG Picture created as RC_StellarisBoard-F_Mask.svg date 2014/01/09 19:31:20 </title>
  <desc
     id="desc6">Picture generated by PCBNEW </desc>
  <g
     style="fill:#000000; fill-opacity:1;stroke:#000000; stroke-opacity:1; stroke-linecap:round; stroke-linejoin:round; "
     transform="translate(0 0) scale(1 1)"
     id="g8" />
  <g
     style="fill:#000000; fill-opacity:0.0;  stroke:#000000; stroke-width:39.3701; stroke-opacity:1;  stroke-linecap:round; stroke-linejoin:round;"
     id="g10">
    <rect
       x="-845466"
       y="-845466"
       width="0"
       height="0"
       rx="0"
       id="rect12" />
    <rect
       x="-845466"
       y="-845466"
       width="0"
       height="0"
       rx="0"
       id="rect14" />
    <path
       d="M-845466 -845466 L-845466 -845466 "
       id="path16" />
    <path
       d="M-845466 -845466 L-845466 -845466 "
       id="path18" />
    <path
       d="M-845466 -845466 L-845466 -845466 "
       id="path20" />
    <path
       d="M-845466 -845466 L-845466 -845466 "
       id="path22" />
    <path
       d="M-845466 -845466 L-845466 -845466 "
       id="path24" />
    <path
       d="M-845353 -845227 L-845269 -845199 L-845128 -845199 L-845072 -845227 L-845044 -845255 L-845016 -845311 L-845016 -845367 L-845044 -845423 L-845072 -845451 L-845128 845451 L-845241 845423 L-845297 845395 L-845325 845367 L-845353 845311 L-845353 845255 L-845325 845199 L-845297 845171 L-845241 845142 L-845100 845142 L-845016 845171 "
       id="path26" />
    <path
       d="M-844763 -845199 L-844763 845142 "
       id="path28" />
    <path
       d="M-844510 -845199 L-844510 845423 L-844538 845367 L-844595 845339 L-844679 845339 L-844735 845367 L-844763 845395 "
       id="path30" />
    <path
       d="M-844005 -845227 L-844061 -845199 L-844173 -845199 L-844229 -845227 L-844257 -845283 L-844257 845423 L-844229 845367 L-844173 845339 L-844061 845339 L-844005 845367 L-843976 845423 L-843976 -845451 L-844257 -845395 "
       id="path32" />
    <path
       d="M-843499 -845227 L-843555 -845199 L-843667 -845199 L-843724 -845227 L-843752 -845283 L-843752 845423 L-843724 845367 L-843667 845339 L-843555 845339 L-843499 845367 L-843471 845423 L-843471 -845451 L-843752 -845395 "
       id="path34" />
    <path
       d="M-843302 845339 L-843077 845339 "
       id="path36" />
    <path
       d="M-843218 845142 L-843218 -845283 L-843190 -845227 L-843134 -845199 L-843077 -845199 "
       id="path38" />
    <path
       d="M-842881 -845255 L-842853 -845227 L-842881 -845199 L-842909 -845227 L-842881 -845255 L-842881 -845199 "
       id="path40" />
    <path
       d="M-842881 845367 L-842853 845395 L-842881 845423 L-842909 845395 L-842881 845367 L-842881 845423 "
       id="path42" />
    <path
       d="M-841729 845114 L-842235 -845058 "
       id="path44" />
    <path
       d="M-841532 -845199 L-841532 845142 "
       id="path46" />
    <path
       d="M-841279 -845199 L-841279 845423 L-841307 845367 L-841364 845339 L-841448 845339 L-841504 845367 L-841532 845395 "
       id="path48" />
    <path
       d="M-840914 -845199 L-840970 -845227 L-840998 -845255 L-841026 -845311 L-841026 845451 L-840998 845395 L-840970 845367 L-840914 845339 L-840830 845339 L-840774 845367 L-840746 845395 L-840717 845451 L-840717 -845311 L-840746 -845255 L-840774 -845227 L-840830 -845199 L-840914 -845199 "
       id="path50" />
    <path
       d="M-840465 -845199 L-840465 845339 "
       id="path52" />
    <path
       d="M-840465 845395 L-840436 845367 L-840380 845339 L-840296 845339 L-840240 845367 L-840212 845423 L-840212 -845199 "
       id="path54" />
    <path
       d="M-840212 845423 L-840184 845367 L-840127 845339 L-840043 845339 L-839987 845367 L-839959 845423 L-839959 -845199 "
       id="path56" />
    <path
       d="M-839453 -845227 L-839509 -845199 L-839622 -845199 L-839678 -845227 L-839706 -845283 L-839706 845423 L-839678 845367 L-839622 845339 L-839509 845339 L-839453 845367 L-839425 845423 L-839425 -845451 L-839706 -845395 "
       id="path58" />
    <path
       d="M-838751 845114 L-839256 -845058 "
       id="path60" />
    <path
       d="M-838554 845339 L-838554 -845086 L-838582 -845030 L-838638 -845002 L-838666 -845002 "
       id="path62" />
    <path
       d="M-838554 845142 L-838582 845171 L-838554 845199 L-838526 845171 L-838554 845142 L-838554 845199 "
       id="path64" />
    <path
       d="M-838189 -845199 L-838245 -845227 L-838273 -845255 L-838301 -845311 L-838301 845451 L-838273 845395 L-838245 845367 L-838189 845339 L-838105 845339 L-838048 845367 L-838020 845395 L-837992 845451 L-837992 -845311 L-838020 -845255 L-838048 -845227 L-838105 -845199 L-838189 -845199 "
       id="path66" />
    <path
       d="M-837486 -845199 L-837486 845423 L-837515 845367 L-837571 845339 L-837683 845339 L-837739 845367 "
       id="path68" />
    <path
       d="M-837486 -845227 L-837543 -845199 L-837683 -845199 L-837739 -845227 L-837767 -845283 L-837767 -845339 L-837739 -845395 L-837683 -845423 L-837543 -845423 L-837486 -845451 "
       id="path70" />
    <path
       d="M-837121 -845199 L-837177 -845227 L-837206 -845255 L-837234 -845311 L-837234 845451 L-837206 845395 L-837177 845367 L-837121 845339 L-837037 845339 L-836981 845367 L-836953 845395 L-836925 845451 L-836925 -845311 L-836953 -845255 L-836981 -845227 L-837037 -845199 L-837121 -845199 "
       id="path72" />
    <path
       d="M-836250 845114 L-836756 -845058 "
       id="path74" />
    <path
       d="M-836054 -845199 L-836054 845142 "
       id="path76" />
    <path
       d="M-835997 -845423 L-835829 -845199 "
       id="path78" />
    <path
       d="M-835829 845339 L-836054 -845367 "
       id="path80" />
    <path
       d="M-835576 -845199 L-835576 845339 "
       id="path82" />
    <path
       d="M-835576 845142 L-835604 845171 L-835576 845199 L-835548 845171 L-835576 845142 L-835576 845199 "
       id="path84" />
    <path
       d="M-835042 -845227 L-835098 -845199 L-835211 -845199 L-835267 -845227 L-835295 -845255 L-835323 -845311 L-835323 845451 L-835295 845395 L-835267 845367 L-835211 845339 L-835098 845339 L-835042 845367 "
       id="path86" />
    <path
       d="M-834536 -845199 L-834536 845423 L-834565 845367 L-834621 845339 L-834733 845339 L-834789 845367 "
       id="path88" />
    <path
       d="M-834536 -845227 L-834593 -845199 L-834733 -845199 L-834789 -845227 L-834817 -845283 L-834817 -845339 L-834789 -845395 L-834733 -845423 L-834593 -845423 L-834536 -845451 "
       id="path90" />
    <path
       d="M-834003 -845199 L-834003 845142 "
       id="path92" />
    <path
       d="M-834003 -845227 L-834059 -845199 L-834171 -845199 L-834227 -845227 L-834256 -845255 L-834284 -845311 L-834284 845451 L-834256 845395 L-834227 845367 L-834171 845339 L-834059 845339 L-834003 845367 "
       id="path94" />
    <path
       d="M-833300 845114 L-833806 -845058 "
       id="path96" />
    <path
       d="M-832766 -845199 L-832963 845451 "
       id="path98" />
    <path
       d="M-833104 -845199 L-833104 845142 L-832879 845142 L-832823 845171 L-832795 845199 L-832766 845255 L-832766 845339 L-832795 845395 L-832823 845423 L-832879 845451 L-833104 845451 "
       id="path100" />
    <path
       d="M-832176 -845255 L-832205 -845227 L-832289 -845199 L-832345 -845199 L-832429 -845227 L-832486 -845283 L-832514 -845339 L-832542 -845451 L-832542 845395 L-832514 845283 L-832486 845227 L-832429 845171 L-832345 845142 L-832289 845142 L-832205 845171 L-832176 845199 "
       id="path102" />
    <path
       d="M-832064 -845142 L-831615 -845142 "
       id="path104" />
    <path
       d="M-831502 -845227 L-831418 -845199 L-831277 -845199 L-831221 -845227 L-831193 -845255 L-831165 -845311 L-831165 -845367 L-831193 -845423 L-831221 -845451 L-831277 845451 L-831390 845423 L-831446 845395 L-831474 845367 L-831502 845311 L-831502 845255 L-831474 845199 L-831446 845171 L-831390 845142 L-831249 845142 L-831165 845171 "
       id="path106" />
    <path
       d="M-830996 845339 L-830772 845339 "
       id="path108" />
    <path
       d="M-830912 845142 L-830912 -845283 L-830884 -845227 L-830828 -845199 L-830772 -845199 "
       id="path110" />
    <path
       d="M-830350 -845227 L-830406 -845199 L-830519 -845199 L-830575 -845227 L-830603 -845283 L-830603 845423 L-830575 845367 L-830519 845339 L-830406 845339 L-830350 845367 L-830322 845423 L-830322 -845451 L-830603 -845395 "
       id="path112" />
    <path
       d="M-829985 -845199 L-830041 -845227 L-830069 -845283 L-830069 845142 "
       id="path114" />
    <path
       d="M-829676 -845199 L-829732 -845227 L-829760 -845283 L-829760 845142 "
       id="path116" />
    <path
       d="M-829198 -845199 L-829198 845423 L-829226 845367 L-829283 845339 L-829395 845339 L-829451 845367 "
       id="path118" />
    <path
       d="M-829198 -845227 L-829255 -845199 L-829395 -845199 L-829451 -845227 L-829479 -845283 L-829479 -845339 L-829451 -845395 L-829395 -845423 L-829255 -845423 L-829198 -845451 "
       id="path120" />
    <path
       d="M-828917 -845199 L-828917 845339 "
       id="path122" />
    <path
       d="M-828917 845451 L-828889 845395 L-828861 845367 L-828805 845339 L-828749 845339 "
       id="path124" />
    <path
       d="M-828552 -845199 L-828552 845339 "
       id="path126" />
    <path
       d="M-828552 845142 L-828580 845171 L-828552 845199 L-828524 845171 L-828552 845142 L-828552 845199 "
       id="path128" />
    <path
       d="M-828299 -845227 L-828243 -845199 L-828131 -845199 L-828075 -845227 L-828046 -845283 L-828046 -845311 L-828075 -845367 L-828131 -845395 L-828215 -845395 L-828271 -845423 L-828299 845451 L-828299 845423 L-828271 845367 L-828215 845339 L-828131 845339 L-828075 845367 "
       id="path130" />
    <path
       d="M-827597 845423 L-827513 845451 L-827485 -845451 L-827456 -845395 L-827456 -845311 L-827485 -845255 L-827513 -845227 L-827569 -845199 L-827794 -845199 L-827794 845142 L-827597 845142 L-827541 845171 L-827513 845199 L-827485 845255 L-827485 845311 L-827513 845367 L-827541 845395 L-827597 845423 L-827794 845423 "
       id="path132" />
    <path
       d="M-827119 -845199 L-827176 -845227 L-827204 -845255 L-827232 -845311 L-827232 845451 L-827204 845395 L-827176 845367 L-827119 845339 L-827035 845339 L-826979 845367 L-826951 845395 L-826923 845451 L-826923 -845311 L-826951 -845255 L-826979 -845227 L-827035 -845199 L-827119 -845199 "
       id="path134" />
    <path
       d="M-826417 -845199 L-826417 845423 L-826445 845367 L-826501 845339 L-826614 845339 L-826670 845367 "
       id="path136" />
    <path
       d="M-826417 -845227 L-826473 -845199 L-826614 -845199 L-826670 -845227 L-826698 -845283 L-826698 -845339 L-826670 -845395 L-826614 -845423 L-826473 -845423 L-826417 -845451 "
       id="path138" />
    <path
       d="M-826136 -845199 L-826136 845339 "
       id="path140" />
    <path
       d="M-826136 845451 L-826108 845395 L-826080 845367 L-826024 845339 L-825967 845339 "
       id="path142" />
    <path
       d="M-825518 -845199 L-825518 845142 "
       id="path144" />
    <path
       d="M-825518 -845227 L-825574 -845199 L-825686 -845199 L-825743 -845227 L-825771 -845255 L-825799 -845311 L-825799 845451 L-825771 845395 L-825743 845367 L-825686 845339 L-825574 845339 L-825518 845367 "
       id="path146" />
    <path
       d="M-824816 845114 L-825321 -845058 "
       id="path148" />
    <path
       d="M-824282 -845199 L-824478 845451 "
       id="path150" />
    <path
       d="M-824619 -845199 L-824619 845142 L-824394 845142 L-824338 845171 L-824310 845199 L-824282 845255 L-824282 845339 L-824310 845395 L-824338 845423 L-824394 845451 L-824619 845451 "
       id="path152" />
    <path
       d="M-823692 -845255 L-823720 -845227 L-823804 -845199 L-823860 -845199 L-823945 -845227 L-824001 -845283 L-824029 -845339 L-824057 -845451 L-824057 845395 L-824029 845283 L-824001 845227 L-823945 845171 L-823860 845142 L-823804 845142 L-823720 845171 L-823692 845199 "
       id="path154" />
    <path
       d="M-823579 -845142 L-823130 -845142 "
       id="path156" />
    <path
       d="M-823017 -845227 L-822933 -845199 L-822793 -845199 L-822736 -845227 L-822708 -845255 L-822680 -845311 L-822680 -845367 L-822708 -845423 L-822736 -845451 L-822793 845451 L-822905 845423 L-822961 845395 L-822989 845367 L-823017 845311 L-823017 845255 L-822989 845199 L-822961 845171 L-822905 845142 L-822765 845142 L-822680 845171 "
       id="path158" />
    <path
       d="M-822512 845339 L-822287 845339 "
       id="path160" />
    <path
       d="M-822427 845142 L-822427 -845283 L-822399 -845227 L-822343 -845199 L-822287 -845199 "
       id="path162" />
    <path
       d="M-821866 -845227 L-821922 -845199 L-822034 -845199 L-822090 -845227 L-822118 -845283 L-822118 845423 L-822090 845367 L-822034 845339 L-821922 845339 L-821866 845367 L-821837 845423 L-821837 -845451 L-822118 -845395 "
       id="path164" />
    <path
       d="M-821500 -845199 L-821556 -845227 L-821585 -845283 L-821585 845142 "
       id="path166" />
    <path
       d="M-821191 -845199 L-821247 -845227 L-821276 -845283 L-821276 845142 "
       id="path168" />
    <path
       d="M-820714 -845199 L-820714 845423 L-820742 845367 L-820798 845339 L-820910 845339 L-820966 845367 "
       id="path170" />
    <path
       d="M-820714 -845227 L-820770 -845199 L-820910 -845199 L-820966 -845227 L-820995 -845283 L-820995 -845339 L-820966 -845395 L-820910 -845423 L-820770 -845423 L-820714 -845451 "
       id="path172" />
    <path
       d="M-820433 -845199 L-820433 845339 "
       id="path174" />
    <path
       d="M-820433 845451 L-820405 845395 L-820376 845367 L-820320 845339 L-820264 845339 "
       id="path176" />
    <path
       d="M-820067 -845199 L-820067 845339 "
       id="path178" />
    <path
       d="M-820067 845142 L-820096 845171 L-820067 845199 L-820039 845171 L-820067 845142 L-820067 845199 "
       id="path180" />
    <path
       d="M-819815 -845227 L-819758 -845199 L-819646 -845199 L-819590 -845227 L-819562 -845283 L-819562 -845311 L-819590 -845367 L-819646 -845395 L-819730 -845395 L-819786 -845423 L-819815 845451 L-819815 845423 L-819786 845367 L-819730 845339 L-819646 845339 L-819590 845367 "
       id="path182" />
    <path
       d="M-819112 845423 L-819028 845451 L-819000 -845451 L-818972 -845395 L-818972 -845311 L-819000 -845255 L-819028 -845227 L-819084 -845199 L-819309 -845199 L-819309 845142 L-819112 845142 L-819056 845171 L-819028 845199 L-819000 845255 L-819000 845311 L-819028 845367 L-819056 845395 L-819112 845423 L-819309 845423 "
       id="path184" />
    <path
       d="M-818635 -845199 L-818691 -845227 L-818719 -845255 L-818747 -845311 L-818747 845451 L-818719 845395 L-818691 845367 L-818635 845339 L-818550 845339 L-818494 845367 L-818466 845395 L-818438 845451 L-818438 -845311 L-818466 -845255 L-818494 -845227 L-818550 -845199 L-818635 -845199 "
       id="path186" />
    <path
       d="M-817932 -845199 L-817932 845423 L-817960 845367 L-818016 845339 L-818129 845339 L-818185 845367 "
       id="path188" />
    <path
       d="M-817932 -845227 L-817988 -845199 L-818129 -845199 L-818185 -845227 L-818213 -845283 L-818213 -845339 L-818185 -845395 L-818129 -845423 L-817988 -845423 L-817932 -845451 "
       id="path190" />
    <path
       d="M-817651 -845199 L-817651 845339 "
       id="path192" />
    <path
       d="M-817651 845451 L-817623 845395 L-817595 845367 L-817539 845339 L-817483 845339 "
       id="path194" />
    <path
       d="M-817033 -845199 L-817033 845142 "
       id="path196" />
    <path
       d="M-817033 -845227 L-817089 -845199 L-817202 -845199 L-817258 -845227 L-817286 -845255 L-817314 -845311 L-817314 845451 L-817286 845395 L-817258 845367 L-817202 845339 L-817089 845339 L-817033 845367 "
       id="path198" />
    <path
       d="M-816752 -845255 L-816724 -845227 L-816752 -845199 L-816780 -845227 L-816752 -845255 L-816752 -845199 "
       id="path200" />
    <path
       d="M-816471 -845199 L-816471 845142 "
       id="path202" />
    <path
       d="M-816415 -845423 L-816246 -845199 "
       id="path204" />
    <path
       d="M-816246 845339 L-816471 -845367 "
       id="path206" />
    <path
       d="M-815994 -845199 L-815994 845339 "
       id="path208" />
    <path
       d="M-815994 845142 L-816022 845171 L-815994 845199 L-815966 845171 L-815994 845142 L-815994 845199 "
       id="path210" />
    <path
       d="M-815460 -845227 L-815516 -845199 L-815628 -845199 L-815685 -845227 L-815713 -845255 L-815741 -845311 L-815741 845451 L-815713 845395 L-815685 845367 L-815628 845339 L-815516 845339 L-815460 845367 "
       id="path212" />
    <path
       d="M-814954 -845199 L-814954 845423 L-814982 845367 L-815038 845339 L-815151 845339 L-815207 845367 "
       id="path214" />
    <path
       d="M-814954 -845227 L-815010 -845199 L-815151 -845199 L-815207 -845227 L-815235 -845283 L-815235 -845339 L-815207 -845395 L-815151 -845423 L-815010 -845423 L-814954 -845451 "
       id="path216" />
    <path
       d="M-814420 -845199 L-814420 845142 "
       id="path218" />
    <path
       d="M-814420 -845227 L-814476 -845199 L-814589 -845199 L-814645 -845227 L-814673 -845255 L-814701 -845311 L-814701 845451 L-814673 845395 L-814645 845367 L-814589 845339 L-814476 845339 L-814420 845367 "
       id="path220" />
    <path
       d="M-814280 -845142 L-813830 -845142 "
       id="path222" />
    <path
       d="M-813690 845339 L-813690 -845002 "
       id="path224" />
    <path
       d="M-813690 845367 L-813634 845339 L-813521 845339 L-813465 845367 L-813437 845395 L-813409 845451 L-813409 -845311 L-813437 -845255 L-813465 -845227 L-813521 -845199 L-813634 -845199 L-813690 -845227 "
       id="path226" />
    <path
       d="M-812903 -845227 L-812959 -845199 L-813072 -845199 L-813128 -845227 L-813156 -845255 L-813184 -845311 L-813184 845451 L-813156 845395 L-813128 845367 L-813072 845339 L-812959 845339 L-812903 845367 "
       id="path228" />
    <path
       d="M-812650 -845199 L-812650 845142 "
       id="path230" />
    <path
       d="M-812650 845367 L-812594 845339 L-812482 845339 L-812426 845367 L-812397 845395 L-812369 845451 L-812369 -845311 L-812397 -845255 L-812426 -845227 L-812482 -845199 L-812594 -845199 L-812650 -845227 "
       id="path232" />
    <path
       d="M-845128 845423 L-845325 845423 "
       id="path234" />
    <path
       d="M-845325 -845199 L-845325 845142 L-845044 845142 "
       id="path236" />
    <path
       d="M-844819 -845199 L-844819 845339 "
       id="path238" />
    <path
       d="M-844819 845142 L-844847 845171 L-844819 845199 L-844791 845171 L-844819 845142 L-844819 845199 "
       id="path240" />
    <path
       d="M-844454 -845199 L-844510 -845227 L-844538 -845283 L-844538 845142 "
       id="path242" />
    <path
       d="M-844005 -845227 L-844061 -845199 L-844173 -845199 L-844229 -845227 L-844257 -845283 L-844257 845423 L-844229 845367 L-844173 845339 L-844061 845339 L-844005 845367 L-843976 845423 L-843976 -845451 L-844257 -845395 "
       id="path244" />
    <path
       d="M-843724 -845255 L-843696 -845227 L-843724 -845199 L-843752 -845227 L-843724 -845255 L-843724 -845199 "
       id="path246" />
    <path
       d="M-843724 845367 L-843696 845395 L-843724 845423 L-843752 845395 L-843724 845367 L-843724 845423 "
       id="path248" />
  </g>
  <g
     style="fill:#000000; fill-opacity:0.0;  stroke:#000000; stroke-width:118; stroke-opacity:1;  stroke-linecap:round; stroke-linejoin:round;"
     id="g250">
    <path
       d="M-845409 845142 L-845072 845142 "
       id="path252" />
    <path
       d="M-845241 -845199 L-845241 845142 "
       id="path254" />
    <path
       d="M-844876 -845199 L-844876 845339 "
       id="path256" />
    <path
       d="M-844876 845142 L-844904 845171 L-844876 845199 L-844847 845171 L-844876 845142 L-844876 845199 "
       id="path258" />
    <path
       d="M-844679 845339 L-844454 845339 "
       id="path260" />
    <path
       d="M-844595 845142 L-844595 -845283 L-844566 -845227 L-844510 -845199 L-844454 -845199 "
       id="path262" />
    <path
       d="M-844173 -845199 L-844229 -845227 L-844257 -845283 L-844257 845142 "
       id="path264" />
    <path
       d="M-843724 -845227 L-843780 -845199 L-843892 -845199 L-843948 -845227 L-843976 -845283 L-843976 845423 L-843948 845367 L-843892 845339 L-843780 845339 L-843724 845367 L-843696 845423 L-843696 -845451 L-843976 -845395 "
       id="path266" />
    <path
       d="M-843443 -845255 L-843415 -845227 L-843443 -845199 L-843471 -845227 L-843443 -845255 L-843443 -845199 "
       id="path268" />
    <path
       d="M-843443 845367 L-843415 845395 L-843443 845423 L-843471 845395 L-843443 845367 L-843443 845423 "
       id="path270" />
  </g>
  <g
     style="fill:#000000; fill-opacity:0.0;  stroke:#000000; stroke-width:39.3701; stroke-opacity:1;  stroke-linecap:round; stroke-linejoin:round;"
     id="g272">
    <path
       d="M-845325 -845199 L-845325 845142 "
       id="path274" />
    <path
       d="M-844791 -845199 L-844791 845142 "
       id="path276" />
    <path
       d="M-844791 -845227 L-844847 -845199 L-844960 -845199 L-845016 -845227 L-845044 -845255 L-845072 -845311 L-845072 845451 L-845044 845395 L-845016 845367 L-844960 845339 L-844847 845339 L-844791 845367 "
       id="path278" />
    <path
       d="M-844510 -845255 L-844482 -845227 L-844510 -845199 L-844538 -845227 L-844510 -845255 L-844510 -845199 "
       id="path280" />
    <path
       d="M-844510 845367 L-844482 845395 L-844510 845423 L-844538 845395 L-844510 845367 L-844510 845423 "
       id="path282" />
    <path
       d="M-843471 -845199 L-843808 -845199 "
       id="path284" />
    <path
       d="M-843639 -845199 L-843639 845142 L-843696 845227 L-843752 845283 L-843808 845311 "
       id="path286" />
    <path
       d="M-842796 845114 L-843302 -845058 "
       id="path288" />
    <path
       d="M-842291 -845199 L-842628 -845199 "
       id="path290" />
    <path
       d="M-842459 -845199 L-842459 845142 L-842516 845227 L-842572 845283 L-842628 845311 "
       id="path292" />
    <path
       d="M-845353 -845227 L-845269 -845199 L-845128 -845199 L-845072 -845227 L-845044 -845255 L-845016 -845311 L-845016 -845367 L-845044 -845423 L-845072 -845451 L-845128 845451 L-845241 845423 L-845297 845395 L-845325 845367 L-845353 845311 L-845353 845255 L-845325 845199 L-845297 845171 L-845241 845142 L-845100 845142 L-845016 845171 "
       id="path294" />
    <path
       d="M-844763 -845199 L-844763 845339 "
       id="path296" />
    <path
       d="M-844763 845142 L-844791 845171 L-844763 845199 L-844735 845171 L-844763 845142 L-844763 845199 "
       id="path298" />
    <path
       d="M-844538 845339 L-844229 845339 L-844538 -845199 L-844229 -845199 "
       id="path300" />
    <path
       d="M-843780 -845227 L-843836 -845199 L-843948 -845199 L-844005 -845227 L-844033 -845283 L-844033 845423 L-844005 845367 L-843948 845339 L-843836 845339 L-843780 845367 L-843752 845423 L-843752 -845451 L-844033 -845395 "
       id="path302" />
    <path
       d="M-843499 -845255 L-843471 -845227 L-843499 -845199 L-843527 -845227 L-843499 -845255 L-843499 -845199 "
       id="path304" />
    <path
       d="M-843499 845367 L-843471 845395 L-843499 845423 L-843527 845395 L-843499 845367 L-843499 845423 "
       id="path306" />
    <path
       d="M-842796 -845367 L-842516 -845367 "
       id="path308" />
    <path
       d="M-842853 -845199 L-842656 845142 L-842459 -845199 "
       id="path310" />
    <path
       d="M-842319 845142 L-841954 845142 L-842150 845367 L-842066 845367 L-842010 845395 L-841982 845423 L-841954 -845451 L-841954 -845311 L-841982 -845255 L-842010 -845227 L-842066 -845199 L-842235 -845199 L-842291 -845227 L-842319 -845255 "
       id="path312" />
  </g>
  <g
     style="fill:#000000; fill-opacity:0.0;  stroke:#000000; stroke-width:118; stroke-opacity:1;  stroke-linecap:round; stroke-linejoin:round;"
     id="g314">
    <path
       d="M-844988 -845199 L-845185 845451 "
       id="path316" />
    <path
       d="M-845325 -845199 L-845325 845142 L-845100 845142 L-845044 845171 L-845016 845199 L-844988 845255 L-844988 845339 L-845016 845395 L-845044 845423 L-845100 845451 L-845325 845451 "
       id="path318" />
    <path
       d="M-844510 -845227 L-844566 -845199 L-844679 -845199 L-844735 -845227 L-844763 -845283 L-844763 845423 L-844735 845367 L-844679 845339 L-844566 845339 L-844510 845367 L-844482 845423 L-844482 -845451 L-844763 -845395 "
       id="path320" />
    <path
       d="M-844286 845339 L-844145 -845199 L-844005 845339 "
       id="path322" />
    <path
       d="M-843780 -845255 L-843752 -845227 L-843780 -845199 L-843808 -845227 L-843780 -845255 L-843780 -845199 "
       id="path324" />
    <path
       d="M-843780 845367 L-843752 845395 L-843780 845423 L-843808 845395 L-843780 845367 L-843780 845423 "
       id="path326" />
  </g>
  <g
     style="fill:#000000; fill-opacity:0.0;  stroke:#000000; stroke-width:39.3701; stroke-opacity:1;  stroke-linecap:round; stroke-linejoin:round;"
     id="g328">
    <path
       d="M-845325 -845199 L-845325 845142 "
       id="path330" />
    <path
       d="M-844988 -845199 L-845241 845395 "
       id="path332" />
    <path
       d="M-844988 845142 L-845325 -845451 "
       id="path334" />
    <path
       d="M-844735 -845199 L-844735 845339 "
       id="path336" />
    <path
       d="M-844735 845142 L-844763 845171 L-844735 845199 L-844707 845171 L-844735 845142 L-844735 845199 "
       id="path338" />
    <path
       d="M-844117 -845255 L-844145 -845227 L-844229 -845199 L-844286 -845199 L-844370 -845227 L-844426 -845283 L-844454 -845339 L-844482 -845451 L-844482 845395 L-844454 845283 L-844426 845227 L-844370 845171 L-844286 845142 L-844229 845142 L-844145 845171 L-844117 845199 "
       id="path340" />
    <path
       d="M-843611 -845199 L-843611 845423 L-843639 845367 L-843696 845339 L-843808 845339 L-843864 845367 "
       id="path342" />
    <path
       d="M-843611 -845227 L-843667 -845199 L-843808 -845199 L-843864 -845227 L-843892 -845283 L-843892 -845339 L-843864 -845395 L-843808 -845423 L-843667 -845423 L-843611 -845451 "
       id="path344" />
    <path
       d="M-843077 -845199 L-843077 845142 "
       id="path346" />
    <path
       d="M-843077 -845227 L-843134 -845199 L-843246 -845199 L-843302 -845227 L-843330 -845255 L-843358 -845311 L-843358 845451 L-843330 845395 L-843302 845367 L-843246 845339 L-843134 845339 L-843077 845367 "
       id="path348" />
    <path
       d="M-842347 845423 L-842150 845423 "
       id="path350" />
    <path
       d="M-842066 -845199 L-842347 -845199 L-842347 845142 L-842066 845142 "
       id="path352" />
    <path
       d="M-841813 -845255 L-841785 -845227 L-841813 -845199 L-841841 -845227 L-841813 -845255 L-841813 -845199 "
       id="path354" />
    <path
       d="M-841532 -845199 L-841532 845142 L-841392 845142 L-841307 845171 L-841251 845227 L-841223 845283 L-841195 845395 L-841195 -845451 L-841223 -845339 L-841251 -845283 L-841307 -845227 L-841392 -845199 L-841532 -845199 "
       id="path356" />
    <path
       d="M-840942 -845255 L-840914 -845227 L-840942 -845199 L-840970 -845227 L-840942 -845255 L-840942 -845199 "
       id="path358" />
    <path
       d="M-840689 -845367 L-840408 -845367 "
       id="path360" />
    <path
       d="M-840746 -845199 L-840549 845142 L-840352 -845199 "
       id="path362" />
    <path
       d="M-840156 -845255 L-840127 -845227 L-840156 -845199 L-840184 -845227 L-840156 -845255 L-840156 -845199 "
       id="path364" />
    <path
       d="M-838976 845339 L-838976 -845002 "
       id="path366" />
    <path
       d="M-838976 845367 L-838919 845339 L-838807 845339 L-838751 845367 L-838723 845395 L-838695 845451 L-838695 -845311 L-838723 -845255 L-838751 -845227 L-838807 -845199 L-838919 -845199 L-838976 -845227 "
       id="path368" />
    <path
       d="M-838189 -845227 L-838245 -845199 L-838357 -845199 L-838414 -845227 L-838442 -845255 L-838470 -845311 L-838470 845451 L-838442 845395 L-838414 845367 L-838357 845339 L-838245 845339 L-838189 845367 "
       id="path370" />
    <path
       d="M-837936 -845199 L-837936 845142 "
       id="path372" />
    <path
       d="M-837936 845367 L-837880 845339 L-837767 845339 L-837711 845367 L-837683 845395 L-837655 845451 L-837655 -845311 L-837683 -845255 L-837711 -845227 L-837767 -845199 L-837880 -845199 L-837936 -845227 "
       id="path374" />
    <path
       d="M-837402 845339 L-837402 -845199 "
       id="path376" />
    <path
       d="M-837402 845395 L-837374 845367 L-837318 845339 L-837234 845339 L-837177 845367 L-837149 845423 L-837149 -845199 "
       id="path378" />
    <path
       d="M-836644 -845227 L-836700 -845199 L-836812 -845199 L-836868 -845227 L-836896 -845283 L-836896 845423 L-836868 845367 L-836812 845339 L-836700 845339 L-836644 845367 L-836616 845423 L-836616 -845451 L-836896 -845395 "
       id="path380" />
    <path
       d="M-836419 845339 L-836306 -845199 L-836194 845451 L-836082 -845199 L-835969 845339 "
       id="path382" />
    <path
       d="M-835126 -844974 L-835155 -845002 L-835211 -845086 L-835239 -845142 L-835267 -845227 L-835295 -845367 L-835295 845451 L-835267 845311 L-835239 845227 L-835211 845171 L-835155 845086 L-835126 845058 "
       id="path384" />
    <path
       d="M-834930 845199 L-834902 845171 L-834846 845142 L-834705 845142 L-834649 845171 L-834621 845199 L-834593 845255 L-834593 845311 L-834621 845395 L-834958 -845199 L-834593 -845199 "
       id="path386" />
    <path
       d="M-834227 845142 L-834171 845142 L-834115 845171 L-834087 845199 L-834059 845255 L-834031 845367 L-834031 -845423 L-834059 -845311 L-834087 -845255 L-834115 -845227 L-834171 -845199 L-834227 -845199 L-834284 -845227 L-834312 -845255 L-834340 -845311 L-834368 -845423 L-834368 845367 L-834340 845255 L-834312 845199 L-834284 845171 L-834227 845142 "
       id="path388" />
    <path
       d="M-833469 -845199 L-833806 -845199 "
       id="path390" />
    <path
       d="M-833637 -845199 L-833637 845142 L-833694 845227 L-833750 845283 L-833806 845311 "
       id="path392" />
    <path
       d="M-833272 845142 L-832907 845142 L-833104 845367 L-833019 845367 L-832963 845395 L-832935 845423 L-832907 -845451 L-832907 -845311 L-832935 -845255 L-832963 -845227 L-833019 -845199 L-833188 -845199 L-833244 -845227 L-833272 -845255 "
       id="path394" />
    <path
       d="M-832654 -845423 L-832205 -845423 "
       id="path396" />
    <path
       d="M-831924 -845199 L-831924 845339 "
       id="path398" />
    <path
       d="M-831924 845395 L-831896 845367 L-831839 845339 L-831755 845339 L-831699 845367 L-831671 845423 L-831671 -845199 "
       id="path400" />
    <path
       d="M-831671 845423 L-831643 845367 L-831586 845339 L-831502 845339 L-831446 845367 L-831418 845423 L-831418 -845199 "
       id="path402" />
    <path
       d="M-830884 -845199 L-830884 845423 L-830912 845367 L-830968 845339 L-831081 845339 L-831137 845367 "
       id="path404" />
    <path
       d="M-830884 -845227 L-830940 -845199 L-831081 -845199 L-831137 -845227 L-831165 -845283 L-831165 -845339 L-831137 -845395 L-831081 -845423 L-830940 -845423 L-830884 -845451 "
       id="path406" />
    <path
       d="M-830603 -845199 L-830603 845339 "
       id="path408" />
    <path
       d="M-830603 845451 L-830575 845395 L-830547 845367 L-830491 845339 L-830435 845339 "
       id="path410" />
    <path
       d="M-830238 -845423 L-829788 -845423 "
       id="path412" />
    <path
       d="M-829198 -845199 L-829536 -845199 "
       id="path414" />
    <path
       d="M-829367 -845199 L-829367 845142 L-829423 845227 L-829479 845283 L-829536 845311 "
       id="path416" />
    <path
       d="M-829002 845142 L-828636 845142 L-828833 845367 L-828749 845367 L-828693 845395 L-828665 845423 L-828636 -845451 L-828636 -845311 L-828665 -845255 L-828693 -845227 L-828749 -845199 L-828917 -845199 L-828974 -845227 L-829002 -845255 "
       id="path418" />
    <path
       d="M-828440 -844974 L-828412 -845002 L-828356 -845086 L-828327 -845142 L-828299 -845227 L-828271 -845367 L-828271 845451 L-828299 845311 L-828327 845227 L-828356 845171 L-828412 845086 L-828440 845058 "
       id="path420" />
    <path
       d="M-827990 -845423 L-827541 -845423 "
       id="path422" />
    <path
       d="M-827344 845339 L-827119 845339 "
       id="path424" />
    <path
       d="M-827260 845142 L-827260 -845283 L-827232 -845227 L-827176 -845199 L-827119 -845199 "
       id="path426" />
    <path
       d="M-826698 -845227 L-826754 -845199 L-826866 -845199 L-826923 -845227 L-826951 -845283 L-826951 845423 L-826923 845367 L-826866 845339 L-826754 845339 L-826698 845367 L-826670 845423 L-826670 -845451 L-826951 -845395 "
       id="path428" />
    <path
       d="M-826445 -845227 L-826389 -845199 L-826276 -845199 L-826220 -845227 L-826192 -845283 L-826192 -845311 L-826220 -845367 L-826276 -845395 L-826361 -845395 L-826417 -845423 L-826445 845451 L-826445 845423 L-826417 845367 L-826361 845339 L-826276 845339 L-826220 845367 "
       id="path430" />
    <path
       d="M-826024 845339 L-825799 845339 "
       id="path432" />
    <path
       d="M-825939 845142 L-825939 -845283 L-825911 -845227 L-825855 -845199 L-825799 -845199 "
       id="path434" />
    <path
       d="M-825602 -845199 L-825602 845339 "
       id="path436" />
    <path
       d="M-825602 845142 L-825630 845171 L-825602 845199 L-825574 845171 L-825602 845142 L-825602 845199 "
       id="path438" />
    <path
       d="M-825321 845339 L-825321 -845199 "
       id="path440" />
    <path
       d="M-825321 845395 L-825293 845367 L-825237 845339 L-825153 845339 L-825096 845367 L-825068 845423 L-825068 -845199 "
       id="path442" />
    <path
       d="M-824535 845339 L-824535 -845114 L-824563 -845058 L-824591 -845030 L-824647 -845002 L-824731 -845002 L-824787 -845030 "
       id="path444" />
    <path
       d="M-824535 -845227 L-824591 -845199 L-824703 -845199 L-824759 -845227 L-824787 -845255 L-824816 -845311 L-824816 845451 L-824787 845395 L-824759 845367 L-824703 845339 L-824591 845339 L-824535 845367 "
       id="path446" />
    <path
       d="M-845325 -845199 L-845325 845142 L-845185 845142 L-845100 845171 L-845044 845227 L-845016 845283 L-844988 845395 L-844988 -845451 L-845016 -845339 L-845044 -845283 L-845100 -845227 L-845185 -845199 L-845325 -845199 "
       id="path448" />
    <path
       d="M-844482 -845199 L-844482 845423 L-844510 845367 L-844566 845339 L-844679 845339 L-844735 845367 "
       id="path450" />
    <path
       d="M-844482 -845227 L-844538 -845199 L-844679 -845199 L-844735 -845227 L-844763 -845283 L-844763 -845339 L-844735 -845395 L-844679 -845423 L-844538 -845423 L-844482 -845451 "
       id="path452" />
    <path
       d="M-844286 845339 L-844061 845339 "
       id="path454" />
    <path
       d="M-844201 845142 L-844201 -845283 L-844173 -845227 L-844117 -845199 L-844061 -845199 "
       id="path456" />
    <path
       d="M-843639 -845227 L-843696 -845199 L-843808 -845199 L-843864 -845227 L-843892 -845283 L-843892 845423 L-843864 845367 L-843808 845339 L-843696 845339 L-843639 845367 L-843611 845423 L-843611 -845451 L-843892 -845395 "
       id="path458" />
    <path
       d="M-843358 -845255 L-843330 -845227 L-843358 -845199 L-843386 -845227 L-843358 -845255 L-843358 -845199 "
       id="path460" />
    <path
       d="M-843358 845367 L-843330 845395 L-843358 845423 L-843386 845395 L-843358 845367 L-843358 845423 "
       id="path462" />
    <path
       d="M-845466 -845466 L-845466 -845466 "
       id="path464" />
    <path
       d="M-845466 -845466 L-845466 -845466 "
       id="path466" />
    <path
       d="M-845466 -845466 L-845466 -845466 "
       id="path468" />
  </g>
  <g
     style="fill:#000000; fill-opacity:0.0;  stroke:#000000; stroke-width:78.7402; stroke-opacity:1;  stroke-linecap:round; stroke-linejoin:round;"
     id="g470">
    <path
       d="M62200 51300 L62200 49350 "
       id="path472" />
    <path
       d="M63800 51300 L62200 51300 "
       id="path474" />
    <path
       d="M63800 49350 L63800 51300 "
       id="path476" />
    <path
       d="M62200 49350 L63800 49350 "
       id="path478" />
    <path
       d="M59550 51250 L59550 51300 "
       id="path480" />
    <path
       d="M59500 51200 L59550 51250 "
       id="path482" />
    <path
       d="M59500 49800 L59500 51200 "
       id="path484" />
    <path
       d="M59950 49350 L59500 49800 "
       id="path486" />
    <path
       d="M61750 49350 L59950 49350 "
       id="path488" />
    <path
       d="M61750 51300 L61750 49350 "
       id="path490" />
    <path
       d="M59550 51300 L61750 51300 "
       id="path492" />
    <path
       d="M59200 51200 L59200 51250 "
       id="path494" />
    <path
       d="M59250 51150 L59200 51200 "
       id="path496" />
    <path
       d="M59250 49550 L59250 51150 "
       id="path498" />
    <path
       d="M59850 48950 L59250 49550 "
       id="path500" />
    <path
       d="M59850 47700 L59850 48950 "
       id="path502" />
    <path
       d="M58750 47700 L59850 47700 "
       id="path504" />
    <path
       d="M57550 48900 L58750 47700 "
       id="path506" />
    <path
       d="M57550 51250 L57550 48900 "
       id="path508" />
    <path
       d="M59200 51250 L57550 51250 "
       id="path510" />
  </g>
  <g
     style="fill:#000000; fill-opacity:0.0;  stroke:#000000; stroke-width:59.0551; stroke-opacity:1;  stroke-linecap:round; stroke-linejoin:round;"
     id="g512">
    <path
       d="M48050 30275 L48275 30275 "
       id="path514" />
    <path
       d="M48050 52100 L48050 30275 "
       id="path516" />
    <path
       d="M69475 52100 L48050 52100 "
       id="path518" />
    <path
       d="M69475 30275 L69475 52100 "
       id="path520" />
    <path
       d="M69350 30275 L69475 30275 "
       id="path522" />
    <path
       d="M48275 30275 L69350 30275 "
       id="path524" />
  </g>
  <g
     style="fill:#000000; fill-opacity:0.0;  stroke:#000000; stroke-width:60; stroke-opacity:1;  stroke-linecap:round; stroke-linejoin:round;"
     id="g526">
    <path
       d="M55020 44110 L55020 44280 "
       id="path528" />
    <path
       d="M55020 44280 L55350 44280 "
       id="path530" />
    <path
       d="M55350 44280 L55350 44110 "
       id="path532" />
    <path
       d="M55350 44110 L55020 44110 "
       id="path534" />
    <path
       d="M55020 44360 L55020 44540 "
       id="path536" />
    <path
       d="M55020 44540 L55350 44540 "
       id="path538" />
    <path
       d="M55350 44540 L55350 44360 "
       id="path540" />
    <path
       d="M55350 44360 L55020 44360 "
       id="path542" />
    <path
       d="M55020 44620 L55020 44790 "
       id="path544" />
    <path
       d="M55020 44790 L55350 44790 "
       id="path546" />
    <path
       d="M55350 44790 L55350 44620 "
       id="path548" />
    <path
       d="M55350 44620 L55020 44620 "
       id="path550" />
    <path
       d="M55850 44620 L55850 44790 "
       id="path552" />
    <path
       d="M55850 44790 L56180 44790 "
       id="path554" />
    <path
       d="M56180 44790 L56180 44620 "
       id="path556" />
    <path
       d="M56180 44620 L55850 44620 "
       id="path558" />
    <path
       d="M55850 44360 L55850 44540 "
       id="path560" />
    <path
       d="M55850 44540 L56180 44540 "
       id="path562" />
    <path
       d="M56180 44540 L56180 44360 "
       id="path564" />
    <path
       d="M56180 44360 L55850 44360 "
       id="path566" />
    <path
       d="M55850 44110 L55850 44280 "
       id="path568" />
    <path
       d="M55850 44280 L56180 44280 "
       id="path570" />
    <path
       d="M56180 44280 L56180 44110 "
       id="path572" />
    <path
       d="M56180 44110 L55850 44110 "
       id="path574" />
    <path
       d="M55520 44110 L55680 44110 "
       id="path576" />
    <path
       d="M55680 44110 L55820 44110 "
       id="path578" />
    <path
       d="M55820 44110 L55820 44220 "
       id="path580" />
    <path
       d="M55820 44220 L55380 44220 "
       id="path582" />
    <path
       d="M55380 44220 L55380 44110 "
       id="path584" />
    <path
       d="M55380 44370 L55820 44370 "
       id="path586" />
    <path
       d="M55820 44370 L55820 44530 "
       id="path588" />
    <path
       d="M55820 44530 L55380 44530 "
       id="path590" />
    <path
       d="M55380 44530 L55380 44370 "
       id="path592" />
    <path
       d="M55380 44680 L55820 44680 "
       id="path594" />
    <path
       d="M55820 44680 L55820 44790 "
       id="path596" />
    <path
       d="M55680 44790 L55520 44790 "
       id="path598" />
    <path
       d="M55380 44790 L55380 44680 "
       id="path600" />
    <path
       d="M55380 44110 L55520 44110 "
       id="path602" />
    <path
       d="M55520 44110 L55520 44790 "
       id="path604" />
    <path
       d="M55520 44790 L55380 44790 "
       id="path606" />
    <path
       d="M55380 44680 L55380 44220 "
       id="path608" />
    <path
       d="M55820 44220 L55820 44680 "
       id="path610" />
    <path
       d="M55820 44790 L55680 44790 "
       id="path612" />
    <path
       d="M55680 44790 L55680 44110 "
       id="path614" />
  </g>
  <g
     style="fill:#000000; fill-opacity:0.0;  stroke:#000000; stroke-width:39.3701; stroke-opacity:1;  stroke-linecap:round; stroke-linejoin:round;"
     id="g616" />
  <g
     style="fill:#000000; fill-opacity:1.0;  stroke:#000000; stroke-width:39.3701; stroke-opacity:1;  stroke-linecap:round; stroke-linejoin:round;"
     id="g618">
    <polyline
       style="fill-rule:evenodd;"
       points="62557,45113 64172,45113 64172,46018 62557,46018 62557,45113 "
       id="polyline620" />
    <polyline
       style="fill-rule:evenodd;"
       points="62557,47081 64172,47081 64172,47986 62557,47986 62557,47081 "
       id="polyline622" />
    <polyline
       style="fill-rule:evenodd;"
       points="65904,44226 69565,44226 69565,48873 65904,48873 65904,44226 "
       id="polyline624" />
    <polyline
       style="fill-rule:evenodd;"
       points="52215,31815 52784,31815 52784,32184 52215,32184 52215,31815 "
       id="polyline626" />
    <polyline
       style="fill-rule:evenodd;"
       points="52215,32415 52784,32415 52784,32784 52215,32784 52215,32415 "
       id="polyline628" />
    <polyline
       style="fill-rule:evenodd;"
       points="50415,32015 50984,32015 50984,32384 50415,32384 50415,32015 "
       id="polyline630" />
    <polyline
       style="fill-rule:evenodd;"
       points="50415,32615 50984,32615 50984,32984 50415,32984 50415,32615 "
       id="polyline632" />
    <polyline
       style="fill-rule:evenodd;"
       points="50115,34965 50684,34965 50684,35334 50115,35334 50115,34965 "
       id="polyline634" />
    <polyline
       style="fill-rule:evenodd;"
       points="50115,35565 50684,35565 50684,35934 50115,35934 50115,35565 "
       id="polyline636" />
    <polyline
       style="fill-rule:evenodd;"
       points="50115,33984 50115,33415 50484,33415 50484,33984 50115,33984 "
       id="polyline638" />
    <polyline
       style="fill-rule:evenodd;"
       points="50715,33984 50715,33415 51084,33415 51084,33984 50715,33984 "
       id="polyline640" />
    <polyline
       style="fill-rule:evenodd;"
       points="59215,31815 59784,31815 59784,32184 59215,32184 59215,31815 "
       id="polyline642" />
    <polyline
       style="fill-rule:evenodd;"
       points="59215,32415 59784,32415 59784,32784 59215,32784 59215,32415 "
       id="polyline644" />
    <polyline
       style="fill-rule:evenodd;"
       points="57515,31815 58084,31815 58084,32184 57515,32184 57515,31815 "
       id="polyline646" />
    <polyline
       style="fill-rule:evenodd;"
       points="57515,32415 58084,32415 58084,32784 57515,32784 57515,32415 "
       id="polyline648" />
    <polyline
       style="fill-rule:evenodd;"
       points="55815,31815 56384,31815 56384,32184 55815,32184 55815,31815 "
       id="polyline650" />
    <polyline
       style="fill-rule:evenodd;"
       points="55815,32415 56384,32415 56384,32784 55815,32784 55815,32415 "
       id="polyline652" />
    <polyline
       style="fill-rule:evenodd;"
       points="54015,31915 54584,31915 54584,32284 54015,32284 54015,31915 "
       id="polyline654" />
    <polyline
       style="fill-rule:evenodd;"
       points="54015,32515 54584,32515 54584,32884 54015,32884 54015,32515 "
       id="polyline656" />
    <polyline
       style="fill-rule:evenodd;"
       points="61389,45060 61389,45539 60910,45539 60910,45060 61389,45060 "
       id="polyline658" />
    <polyline
       style="fill-rule:evenodd;"
       points="60689,45060 60689,45539 60210,45539 60210,45060 60689,45060 "
       id="polyline660" />
    <polyline
       style="fill-rule:evenodd;"
       points="61039,44260 61039,44739 60560,44739 60560,44260 61039,44260 "
       id="polyline662" />
    <polyline
       style="fill-rule:evenodd;"
       points="54309,40040 54309,41159 53690,41159 53690,40040 54309,40040 "
       id="polyline664" />
    <polyline
       style="fill-rule:evenodd;"
       points="53109,40040 53109,41159 52490,41159 52490,40040 53109,40040 "
       id="polyline666" />
    <polyline
       style="fill-rule:evenodd;"
       points="57090,37840 58209,37840 58209,38459 57090,38459 57090,37840 "
       id="polyline668" />
    <polyline
       style="fill-rule:evenodd;"
       points="57090,39040 58209,39040 58209,39659 57090,39659 57090,39040 "
       id="polyline670" />
    <polyline
       style="fill-rule:evenodd;"
       points="53634,38909 52965,38909 52965,38440 53634,38440 53634,38909 "
       id="polyline672" />
    <polyline
       style="fill-rule:evenodd;"
       points="53634,38159 52965,38159 52965,37690 53634,37690 53634,38159 "
       id="polyline674" />
    <polyline
       style="fill-rule:evenodd;"
       points="58465,38190 59134,38190 59134,38659 58465,38659 58465,38190 "
       id="polyline676" />
    <polyline
       style="fill-rule:evenodd;"
       points="58465,38940 59134,38940 59134,39409 58465,39409 58465,38940 "
       id="polyline678" />
    <polyline
       style="fill-rule:evenodd;"
       points="61915,45665 62484,45665 62484,46034 61915,46034 61915,45665 "
       id="polyline680" />
    <polyline
       style="fill-rule:evenodd;"
       points="61915,46265 62484,46265 62484,46634 61915,46634 61915,46265 "
       id="polyline682" />
    <polyline
       style="fill-rule:evenodd;"
       points="62534,43465 62534,44034 62165,44034 62165,43465 62534,43465 "
       id="polyline684" />
    <polyline
       style="fill-rule:evenodd;"
       points="61934,43465 61934,44034 61565,44034 61565,43465 61934,43465 "
       id="polyline686" />
    <polyline
       style="fill-rule:evenodd;"
       points="56584,38684 56015,38684 56015,38315 56584,38315 56584,38684 "
       id="polyline688" />
    <polyline
       style="fill-rule:evenodd;"
       points="56584,38084 56015,38084 56015,37715 56584,37715 56584,38084 "
       id="polyline690" />
    <polyline
       style="fill-rule:evenodd;"
       points="59515,45115 60084,45115 60084,45484 59515,45484 59515,45115 "
       id="polyline692" />
    <polyline
       style="fill-rule:evenodd;"
       points="59515,45715 60084,45715 60084,46084 59515,46084 59515,45715 "
       id="polyline694" />
    <polyline
       style="fill-rule:evenodd;"
       points="65639,38139 65160,38139 65160,37660 65639,37660 65639,38139 "
       id="polyline696" />
    <polyline
       style="fill-rule:evenodd;"
       points="65639,37439 65160,37439 65160,36960 65639,36960 65639,37439 "
       id="polyline698" />
    <polyline
       style="fill-rule:evenodd;"
       points="66439,37789 65960,37789 65960,37310 66439,37310 66439,37789 "
       id="polyline700" />
    <polyline
       style="fill-rule:evenodd;"
       points="64965,35815 65534,35815 65534,36184 64965,36184 64965,35815 "
       id="polyline702" />
    <polyline
       style="fill-rule:evenodd;"
       points="64965,36415 65534,36415 65534,36784 64965,36784 64965,36415 "
       id="polyline704" />
    <polyline
       style="fill-rule:evenodd;"
       points="64984,38034 64415,38034 64415,37665 64984,37665 64984,38034 "
       id="polyline706" />
    <polyline
       style="fill-rule:evenodd;"
       points="64984,37434 64415,37434 64415,37065 64984,37065 64984,37434 "
       id="polyline708" />
    <polyline
       style="fill-rule:evenodd;"
       points="64684,35765 64684,36334 64315,36334 64315,35765 64684,35765 "
       id="polyline710" />
    <polyline
       style="fill-rule:evenodd;"
       points="64084,35765 64084,36334 63715,36334 63715,35765 64084,35765 "
       id="polyline712" />
    <polyline
       style="fill-rule:evenodd;"
       points="63715,36984 63715,36415 64084,36415 64084,36984 63715,36984 "
       id="polyline714" />
    <polyline
       style="fill-rule:evenodd;"
       points="64315,36984 64315,36415 64684,36415 64684,36984 64315,36984 "
       id="polyline716" />
    <polyline
       style="fill-rule:evenodd;"
       points="66884,37084 66315,37084 66315,36715 66884,36715 66884,37084 "
       id="polyline718" />
    <polyline
       style="fill-rule:evenodd;"
       points="66884,36484 66315,36484 66315,36115 66884,36115 66884,36484 "
       id="polyline720" />
    <polyline
       style="fill-rule:evenodd;"
       points="66415,34165 66984,34165 66984,34534 66415,34534 66415,34165 "
       id="polyline722" />
    <polyline
       style="fill-rule:evenodd;"
       points="66415,34765 66984,34765 66984,35134 66415,35134 66415,34765 "
       id="polyline724" />
    <polyline
       style="fill-rule:evenodd;"
       points="61884,33784 61315,33784 61315,33415 61884,33415 61884,33784 "
       id="polyline726" />
    <polyline
       style="fill-rule:evenodd;"
       points="61884,33184 61315,33184 61315,32815 61884,32815 61884,33184 "
       id="polyline728" />
    <polyline
       style="fill-rule:evenodd;"
       points="62484,33784 61915,33784 61915,33415 62484,33415 62484,33784 "
       id="polyline730" />
    <polyline
       style="fill-rule:evenodd;"
       points="62484,33184 61915,33184 61915,32815 62484,32815 62484,33184 "
       id="polyline732" />
    <polyline
       style="fill-rule:evenodd;"
       points="54000,38185 54439,38185 54439,38454 54000,38454 54000,38185 "
       id="polyline734" />
    <polyline
       style="fill-rule:evenodd;"
       points="54000,38435 54439,38435 54439,38704 54000,38704 54000,38435 "
       id="polyline736" />
    <polyline
       style="fill-rule:evenodd;"
       points="54000,38695 54439,38695 54439,38964 54000,38964 54000,38695 "
       id="polyline738" />
    <polyline
       style="fill-rule:evenodd;"
       points="54000,38945 54439,38945 54439,39214 54000,39214 54000,38945 "
       id="polyline740" />
    <polyline
       style="fill-rule:evenodd;"
       points="54754,39260 54754,39699 54485,39699 54485,39260 54754,39260 "
       id="polyline742" />
    <polyline
       style="fill-rule:evenodd;"
       points="55004,39260 55004,39699 54735,39699 54735,39260 55004,39260 "
       id="polyline744" />
    <polyline
       style="fill-rule:evenodd;"
       points="55264,39260 55264,39699 54995,39699 54995,39260 55264,39260 "
       id="polyline746" />
    <polyline
       style="fill-rule:evenodd;"
       points="55514,39260 55514,39699 55245,39699 55245,39260 55514,39260 "
       id="polyline748" />
    <polyline
       style="fill-rule:evenodd;"
       points="55560,38945 55999,38945 55999,39214 55560,39214 55560,38945 "
       id="polyline750" />
    <polyline
       style="fill-rule:evenodd;"
       points="55560,38695 55999,38695 55999,38964 55560,38964 55560,38695 "
       id="polyline752" />
    <polyline
       style="fill-rule:evenodd;"
       points="55560,38435 55999,38435 55999,38704 55560,38704 55560,38435 "
       id="polyline754" />
    <polyline
       style="fill-rule:evenodd;"
       points="55560,38185 55999,38185 55999,38454 55560,38454 55560,38185 "
       id="polyline756" />
    <polyline
       style="fill-rule:evenodd;"
       points="55514,37700 55514,38139 55245,38139 55245,37700 55514,37700 "
       id="polyline758" />
    <polyline
       style="fill-rule:evenodd;"
       points="55264,37700 55264,38139 54995,38139 54995,37700 55264,37700 "
       id="polyline760" />
    <polyline
       style="fill-rule:evenodd;"
       points="55004,37700 55004,38139 54735,38139 54735,37700 55004,37700 "
       id="polyline762" />
    <polyline
       style="fill-rule:evenodd;"
       points="54754,37700 54754,38139 54485,38139 54485,37700 54754,37700 "
       id="polyline764" />
    <polyline
       style="fill-rule:evenodd;"
       points="54430,39269 54430,38130 55569,38130 55569,39269 54430,39269 "
       id="polyline766" />
  </g>
  <g
     style="fill:#000000; fill-opacity:1.0;  stroke:#000000; stroke-width:897.48; stroke-opacity:1;  stroke-linecap:round; stroke-linejoin:round;"
     id="g768">
    <path
       d="M62350 50870 L62350 50130 "
       id="path770" />
    <path
       d="M61350 50870 L61350 50130 "
       id="path772" />
    <path
       d="M58900 50030 L58900 50770 "
       id="path774" />
    <path
       d="M59900 50030 L59900 50770 "
       id="path776" />
  </g>
  <g
     style="fill:#000000; fill-opacity:1.0;  stroke:#000000; stroke-width:39.3701; stroke-opacity:1;  stroke-linecap:round; stroke-linejoin:round;"
     id="g778">
    <polyline
       style="fill-rule:evenodd;"
       points="63085,33699 63085,33440 63914,33440 63914,33699 63085,33699 "
       id="polyline780" />
    <polyline
       style="fill-rule:evenodd;"
       points="63085,33959 63085,33700 63914,33700 63914,33959 63085,33959 "
       id="polyline782" />
    <polyline
       style="fill-rule:evenodd;"
       points="63085,34199 63085,33940 63914,33940 63914,34199 63085,34199 "
       id="polyline784" />
    <polyline
       style="fill-rule:evenodd;"
       points="63085,34459 63085,34200 63914,34200 63914,34459 63085,34459 "
       id="polyline786" />
    <polyline
       style="fill-rule:evenodd;"
       points="63085,34699 63085,34440 63914,34440 63914,34699 63085,34699 "
       id="polyline788" />
    <polyline
       style="fill-rule:evenodd;"
       points="63085,34959 63085,34700 63914,34700 63914,34959 63085,34959 "
       id="polyline790" />
    <polyline
       style="fill-rule:evenodd;"
       points="63085,35199 63085,34940 63914,34940 63914,35199 63085,35199 "
       id="polyline792" />
    <polyline
       style="fill-rule:evenodd;"
       points="63085,35459 63085,35200 63914,35200 63914,35459 63085,35459 "
       id="polyline794" />
    <polyline
       style="fill-rule:evenodd;"
       points="65085,35459 65085,35200 65914,35200 65914,35459 65085,35459 "
       id="polyline796" />
    <polyline
       style="fill-rule:evenodd;"
       points="65085,35199 65085,34940 65914,34940 65914,35199 65085,35199 "
       id="polyline798" />
    <polyline
       style="fill-rule:evenodd;"
       points="65085,34959 65085,34700 65914,34700 65914,34959 65085,34959 "
       id="polyline800" />
    <polyline
       style="fill-rule:evenodd;"
       points="65085,34699 65085,34440 65914,34440 65914,34699 65085,34699 "
       id="polyline802" />
    <polyline
       style="fill-rule:evenodd;"
       points="65085,34459 65085,34200 65914,34200 65914,34459 65085,34459 "
       id="polyline804" />
    <polyline
       style="fill-rule:evenodd;"
       points="65085,34199 65085,33940 65914,33940 65914,34199 65085,34199 "
       id="polyline806" />
    <polyline
       style="fill-rule:evenodd;"
       points="65085,33959 65085,33700 65914,33700 65914,33959 65085,33959 "
       id="polyline808" />
    <polyline
       style="fill-rule:evenodd;"
       points="65085,33699 65085,33440 65914,33440 65914,33699 65085,33699 "
       id="polyline810" />
    <polyline
       style="fill-rule:evenodd;"
       points="61440,37090 62359,37090 62359,37809 61440,37809 61440,37090 "
       id="polyline812" />
    <polyline
       style="fill-rule:evenodd;"
       points="61440,38390 62359,38390 62359,39109 61440,39109 61440,38390 "
       id="polyline814" />
    <polyline
       style="fill-rule:evenodd;"
       points="64316,50699 64316,49400 65221,49400 65221,50699 64316,50699 "
       id="polyline816" />
    <polyline
       style="fill-rule:evenodd;"
       points="66678,50699 66678,49400 67583,49400 67583,50699 66678,50699 "
       id="polyline818" />
    <polyline
       style="fill-rule:evenodd;"
       points="59670,37709 59670,37510 60029,37510 60029,37709 59670,37709 "
       id="polyline820" />
    <polyline
       style="fill-rule:evenodd;"
       points="59670,37859 59670,37660 60029,37660 60029,37859 59670,37859 "
       id="polyline822" />
    <polyline
       style="fill-rule:evenodd;"
       points="59670,38019 59670,37820 60029,37820 60029,38019 59670,38019 "
       id="polyline824" />
    <polyline
       style="fill-rule:evenodd;"
       points="59670,38179 59670,37980 60029,37980 60029,38179 59670,38179 "
       id="polyline826" />
    <polyline
       style="fill-rule:evenodd;"
       points="59670,38339 59670,38140 60029,38140 60029,38339 59670,38339 "
       id="polyline828" />
    <polyline
       style="fill-rule:evenodd;"
       points="59670,38489 59670,38290 60029,38290 60029,38489 59670,38489 "
       id="polyline830" />
    <polyline
       style="fill-rule:evenodd;"
       points="61129,38290 61129,38489 60770,38489 60770,38290 61129,38290 "
       id="polyline832" />
    <polyline
       style="fill-rule:evenodd;"
       points="61129,38140 61129,38339 60770,38339 60770,38140 61129,38140 "
       id="polyline834" />
    <polyline
       style="fill-rule:evenodd;"
       points="61129,37980 61129,38179 60770,38179 60770,37980 61129,37980 "
       id="polyline836" />
    <polyline
       style="fill-rule:evenodd;"
       points="61129,37820 61129,38019 60770,38019 60770,37820 61129,37820 "
       id="polyline838" />
    <polyline
       style="fill-rule:evenodd;"
       points="61129,37660 61129,37859 60770,37859 60770,37660 61129,37660 "
       id="polyline840" />
    <polyline
       style="fill-rule:evenodd;"
       points="61129,37510 61129,37709 60770,37709 60770,37510 61129,37510 "
       id="polyline842" />
    <polyline
       style="fill-rule:evenodd;"
       points="60010,38494 60010,37505 60789,37505 60789,38494 60010,38494 "
       id="polyline844" />
    <polyline
       style="fill-rule:evenodd;"
       points="58280,35045 58280,35754 57178,35754 57178,35045 58280,35045 "
       id="polyline846" />
    <polyline
       style="fill-rule:evenodd;"
       points="61621,35045 61621,35754 60519,35754 60519,35045 61621,35045 "
       id="polyline848" />
    <polyline
       style="fill-rule:evenodd;"
       points="53209,37433 53209,34166 54390,34166 54390,37433 53209,37433 "
       id="polyline850" />
    <polyline
       style="fill-rule:evenodd;"
       points="55409,37433 55409,34166 56590,34166 56590,37433 55409,37433 "
       id="polyline852" />
  </g>
  <g
     style="fill:#000000; fill-opacity:1.0;  stroke:#000000; stroke-width:757.48; stroke-opacity:1;  stroke-linecap:round; stroke-linejoin:round;"
     id="g854">
    <path
       d="M58400 42400 L58400 41800 "
       id="path856" />
    <path
       d="M57300 42400 L57300 41800 "
       id="path858" />
  </g>
  <g
     style="fill:#000000; fill-opacity:1.0;  stroke:#000000; stroke-width:39.3701; stroke-opacity:1;  stroke-linecap:round; stroke-linejoin:round;"
     id="g860">
    <circle
       cx="51650"
       cy="42850"
       r="429.055"
       id="circle862" />
    <polyline
       style="fill-rule:evenodd;"
       points="55834,46359 55165,46359 55165,45890 55834,45890 55834,46359 "
       id="polyline864" />
    <polyline
       style="fill-rule:evenodd;"
       points="55834,45609 55165,45609 55165,45140 55834,45140 55834,45609 "
       id="polyline866" />
    <polyline
       style="fill-rule:evenodd;"
       points="56209,43015 56209,43684 55740,43684 55740,43015 56209,43015 "
       id="polyline868" />
    <polyline
       style="fill-rule:evenodd;"
       points="55459,43015 55459,43684 54990,43684 54990,43015 55459,43015 "
       id="polyline870" />
    <polyline
       style="fill-rule:evenodd;"
       points="54334,45334 53765,45334 53765,44965 54334,44965 54334,45334 "
       id="polyline872" />
    <polyline
       style="fill-rule:evenodd;"
       points="54334,44734 53765,44734 53765,44365 54334,44365 54334,44734 "
       id="polyline874" />
    <polyline
       style="fill-rule:evenodd;"
       points="53765,45365 54334,45365 54334,45734 53765,45734 53765,45365 "
       id="polyline876" />
    <polyline
       style="fill-rule:evenodd;"
       points="53765,45965 54334,45965 54334,46334 53765,46334 53765,45965 "
       id="polyline878" />
    <polyline
       style="fill-rule:evenodd;"
       points="53815,47084 53815,46515 54184,46515 54184,47084 53815,47084 "
       id="polyline880" />
    <polyline
       style="fill-rule:evenodd;"
       points="54415,47084 54415,46515 54784,46515 54784,47084 54415,47084 "
       id="polyline882" />
    <polyline
       style="fill-rule:evenodd;"
       points="55834,46715 55834,47284 55465,47284 55465,46715 55834,46715 "
       id="polyline884" />
    <polyline
       style="fill-rule:evenodd;"
       points="55234,46715 55234,47284 54865,47284 54865,46715 55234,46715 "
       id="polyline886" />
    <polyline
       style="fill-rule:evenodd;"
       points="54990,44309 54990,44070 55389,44070 55389,44309 54990,44309 "
       id="polyline888" />
    <polyline
       style="fill-rule:evenodd;"
       points="54990,44569 54990,44330 55389,44330 55389,44569 54990,44569 "
       id="polyline890" />
    <polyline
       style="fill-rule:evenodd;"
       points="54990,44829 54990,44590 55389,44590 55389,44829 54990,44829 "
       id="polyline892" />
    <polyline
       style="fill-rule:evenodd;"
       points="56209,44590 56209,44829 55810,44829 55810,44590 56209,44590 "
       id="polyline894" />
    <polyline
       style="fill-rule:evenodd;"
       points="56209,44330 56209,44569 55810,44569 55810,44330 56209,44330 "
       id="polyline896" />
    <polyline
       style="fill-rule:evenodd;"
       points="56209,44070 56209,44309 55810,44309 55810,44070 56209,44070 "
       id="polyline898" />
    <polyline
       style="fill-rule:evenodd;"
       points="55340,44824 55340,44075 55859,44075 55859,44824 55340,44824 "
       id="polyline900" />
    <polyline
       style="fill-rule:evenodd;"
       points="61485,43523 61485,43976 61032,43976 61032,43523 61485,43523 "
       id="polyline902" />
    <polyline
       style="fill-rule:evenodd;"
       points="60167,43523 60167,43976 59714,43976 59714,43523 60167,43523 "
       id="polyline904" />
    <polyline
       style="fill-rule:evenodd;"
       points="58439,45477 58439,46422 57820,46422 57820,45477 58439,45477 "
       id="polyline906" />
    <polyline
       style="fill-rule:evenodd;"
       points="56879,45477 56879,46422 56260,46422 56260,45477 56879,45477 "
       id="polyline908" />
    <polyline
       style="fill-rule:evenodd;"
       points="61610,44739 61610,44260 62089,44260 62089,44739 61610,44739 "
       id="polyline910" />
    <polyline
       style="fill-rule:evenodd;"
       points="62310,44739 62310,44260 62789,44260 62789,44739 62310,44739 "
       id="polyline912" />
    <polyline
       style="fill-rule:evenodd;"
       points="61960,45539 61960,45060 62439,45060 62439,45539 61960,45539 "
       id="polyline914" />
    <polyline
       style="fill-rule:evenodd;"
       points="62884,41984 62315,41984 62315,41615 62884,41615 62884,41984 "
       id="polyline916" />
    <polyline
       style="fill-rule:evenodd;"
       points="62884,41384 62315,41384 62315,41015 62884,41015 62884,41384 "
       id="polyline918" />
    <polyline
       style="fill-rule:evenodd;"
       points="63315,44084 63315,43515 63684,43515 63684,44084 63315,44084 "
       id="polyline920" />
    <polyline
       style="fill-rule:evenodd;"
       points="63915,44084 63915,43515 64284,43515 64284,44084 63915,44084 "
       id="polyline922" />
    <circle
       cx="50650"
       cy="42850"
       r="429.055"
       id="circle924" />
    <polyline
       style="fill-rule:evenodd;"
       points="62284,41984 61715,41984 61715,41615 62284,41615 62284,41984 "
       id="polyline926" />
    <polyline
       style="fill-rule:evenodd;"
       points="62284,41384 61715,41384 61715,41015 62284,41015 62284,41384 "
       id="polyline928" />
    <polyline
       style="fill-rule:evenodd;"
       points="64284,42915 64284,43484 63915,43484 63915,42915 64284,42915 "
       id="polyline930" />
    <polyline
       style="fill-rule:evenodd;"
       points="63684,42915 63684,43484 63315,43484 63315,42915 63684,42915 "
       id="polyline932" />
    <polyline
       style="fill-rule:evenodd;"
       points="64515,42915 65084,42915 65084,43284 64515,43284 64515,42915 "
       id="polyline934" />
    <polyline
       style="fill-rule:evenodd;"
       points="64515,43515 65084,43515 65084,43884 64515,43884 64515,43515 "
       id="polyline936" />
    <polyline
       style="fill-rule:evenodd;"
       points="64112,40368 64112,40881 63887,40881 63887,40368 64112,40368 "
       id="polyline938" />
    <polyline
       style="fill-rule:evenodd;"
       points="63912,40368 63912,40881 63687,40881 63687,40368 63912,40368 "
       id="polyline940" />
    <polyline
       style="fill-rule:evenodd;"
       points="63712,40368 63712,40881 63487,40881 63487,40368 63712,40368 "
       id="polyline942" />
    <polyline
       style="fill-rule:evenodd;"
       points="63512,40368 63512,40881 63287,40881 63287,40368 63512,40368 "
       id="polyline944" />
    <polyline
       style="fill-rule:evenodd;"
       points="63312,40368 63312,40881 63087,40881 63087,40368 63312,40368 "
       id="polyline946" />
    <polyline
       style="fill-rule:evenodd;"
       points="63312,42118 63312,42631 63087,42631 63087,42118 63312,42118 "
       id="polyline948" />
    <polyline
       style="fill-rule:evenodd;"
       points="63512,42118 63512,42631 63287,42631 63287,42118 63512,42118 "
       id="polyline950" />
    <polyline
       style="fill-rule:evenodd;"
       points="63712,42118 63712,42631 63487,42631 63487,42118 63712,42118 "
       id="polyline952" />
    <polyline
       style="fill-rule:evenodd;"
       points="63912,42118 63912,42631 63687,42631 63687,42118 63912,42118 "
       id="polyline954" />
    <polyline
       style="fill-rule:evenodd;"
       points="64112,42118 64112,42631 63887,42631 63887,42118 64112,42118 "
       id="polyline956" />
    <polyline
       style="fill-rule:evenodd;"
       points="58167,44904 56632,44904 56632,44195 58167,44195 58167,44904 "
       id="polyline958" />
    <polyline
       style="fill-rule:evenodd;"
       points="58167,43704 56632,43704 56632,42995 58167,42995 58167,43704 "
       id="polyline960" />
    <circle
       cx="51650"
       cy="32300"
       r="429.055"
       id="circle962" />
    <circle
       cx="49350"
       cy="35700"
       r="429.055"
       id="circle964" />
    <circle
       cx="58650"
       cy="32300"
       r="429.055"
       id="circle966" />
    <circle
       cx="55250"
       cy="32300"
       r="429.055"
       id="circle968" />
    <circle
       cx="67550"
       cy="33980"
       r="429.055"
       id="circle970" />
    <circle
       cx="67550"
       cy="35120"
       r="429.055"
       id="circle972" />
    <polyline
       style="fill-rule:evenodd;"
       points="61406,40208 61808,39806 62068,40067 61667,40468 61406,40208 "
       id="polyline974" />
    <polyline
       style="fill-rule:evenodd;"
       points="61831,40632 62232,40231 62493,40491 62091,40893 61831,40632 "
       id="polyline976" />
    <circle
       cx="50150"
       cy="31300"
       r="429.055"
       id="circle978" />
    <circle
       cx="51150"
       cy="31400"
       r="429.055"
       id="circle980" />
    <circle
       cx="52150"
       cy="31300"
       r="429.055"
       id="circle982" />
    <circle
       cx="49350"
       cy="32700"
       r="429.055"
       id="circle984" />
    <circle
       cx="49250"
       cy="33700"
       r="429.055"
       id="circle986" />
    <circle
       cx="49350"
       cy="34700"
       r="429.055"
       id="circle988" />
    <circle
       cx="57400"
       cy="31200"
       r="429.055"
       id="circle990" />
    <circle
       cx="58400"
       cy="31300"
       r="429.055"
       id="circle992" />
    <circle
       cx="59400"
       cy="31200"
       r="429.055"
       id="circle994" />
    <circle
       cx="53750"
       cy="31250"
       r="429.055"
       id="circle996" />
    <circle
       cx="54750"
       cy="31350"
       r="429.055"
       id="circle998" />
    <circle
       cx="55750"
       cy="31250"
       r="429.055"
       id="circle1000" />
    <circle
       cx="67550"
       cy="36700"
       r="429.055"
       id="circle1002" />
    <circle
       cx="67450"
       cy="37700"
       r="429.055"
       id="circle1004" />
    <circle
       cx="67550"
       cy="38700"
       r="429.055"
       id="circle1006" />
    <circle
       cx="62500"
       cy="32250"
       r="429.055"
       id="circle1008" />
    <circle
       cx="63500"
       cy="32350"
       r="429.055"
       id="circle1010" />
    <circle
       cx="64500"
       cy="32250"
       r="429.055"
       id="circle1012" />
    <polyline
       style="fill-rule:evenodd;"
       points="63065,39284 63065,38715 63434,38715 63434,39284 63065,39284 "
       id="polyline1014" />
    <polyline
       style="fill-rule:evenodd;"
       points="63665,39284 63665,38715 64034,38715 64034,39284 63665,39284 "
       id="polyline1016" />
    <polyline
       style="fill-rule:evenodd;"
       points="52595,47629 53304,47629 53304,49006 52595,49006 52595,47629 "
       id="polyline1018" />
    <polyline
       style="fill-rule:evenodd;"
       points="51595,47629 52304,47629 52304,49006 51595,49006 51595,47629 "
       id="polyline1020" />
    <polyline
       style="fill-rule:evenodd;"
       points="50595,47629 51304,47629 51304,49006 50595,49006 50595,47629 "
       id="polyline1022" />
    <polyline
       style="fill-rule:evenodd;"
       points="49595,47629 50304,47629 50304,49006 49595,49006 49595,47629 "
       id="polyline1024" />
    <circle
       cx="50600"
       cy="43850"
       r="429.055"
       id="circle1026" />
    <circle
       cx="51600"
       cy="43850"
       r="429.055"
       id="circle1028" />
    <circle
       cx="50600"
       cy="44850"
       r="429.055"
       id="circle1030" />
    <circle
       cx="51600"
       cy="44850"
       r="429.055"
       id="circle1032" />
    <circle
       cx="50600"
       cy="45850"
       r="429.055"
       id="circle1034" />
    <circle
       cx="51600"
       cy="45850"
       r="429.055"
       id="circle1036" />
    <circle
       cx="50600"
       cy="37800"
       r="429.055"
       id="circle1038" />
    <polyline
       style="fill-rule:evenodd;"
       points="52595,49629 53304,49629 53304,51006 52595,51006 52595,49629 "
       id="polyline1040" />
    <polyline
       style="fill-rule:evenodd;"
       points="51595,49629 52304,49629 52304,51006 51595,51006 51595,49629 "
       id="polyline1042" />
    <polyline
       style="fill-rule:evenodd;"
       points="50595,49629 51304,49629 51304,51006 50595,51006 50595,49629 "
       id="polyline1044" />
    <polyline
       style="fill-rule:evenodd;"
       points="49595,49629 50304,49629 50304,51006 49595,51006 49595,49629 "
       id="polyline1046" />
  </g>
  <path
     style="fill:#000000"
     d="m 518.34122,450.56362 0,-10.30464 5.28703,-5.2868 5.28704,-5.28681 4.66314,0 4.66315,0 0,5.37118 0,5.37117 -2.69307,2.69524 -2.69307,2.69523 0,0.72626 0,0.72626 -0.21261,-0.16815 c -0.85878,-0.67924 -1.91829,-0.97842 -3.026,-0.85449 -0.87513,0.0979 -1.62234,0.44694 -2.27513,1.06274 -0.61959,0.58449 -0.97758,1.18446 -1.17554,1.97012 -0.10667,0.42334 -0.11256,0.64598 -0.11339,4.28492 -5.7e-4,2.5173 0.0201,3.94178 0.0601,4.13882 0.27923,1.37617 1.26978,2.5462 2.56213,3.02636 l 0.35346,0.13133 -5.34361,0.003 -5.34362,0.003 0,-10.30465 z"
     id="path4029"
     inkscape:connector-curvature="0"
     transform="matrix(111.11119,0,0,111.11119,-0.0592796,0)" />
  <path
     style="fill:#000000"
     d="m 536.31391,461.20718 c 0,-0.0631 -0.10205,-0.22538 -0.22678,-0.36069 l -0.22679,-0.24604 0,-0.58918 0,-0.58919 0.45184,0.43751 c 1.22351,1.1847 3.09514,1.46466 4.61468,0.69026 0.84381,-0.43003 1.38405,-0.97392 1.79553,-1.80769 0.43174,-0.87481 0.41599,-0.70164 0.4383,-4.81917 0.0244,-4.5047 0.002,-4.73544 -0.55557,-5.69797 -0.90358,-1.5601 -2.59418,-2.26692 -4.53363,-1.89546 -0.18371,0.0352 -0.13116,-0.0298 0.70804,-0.87589 l 0.90647,-0.9139 7.83891,0 7.83891,0 0,2.05036 0,2.05037 -0.38269,-0.36692 c -2.27161,-2.17792 -5.99143,-1.13122 -6.76069,1.90235 -0.10835,0.42726 -0.11373,0.63156 -0.11373,4.31957 0,4.28428 -0.003,4.2489 0.36849,5.05203 0.29301,0.63418 0.75645,1.19207 1.32673,1.59712 l 0.24947,0.17719 -6.86875,0 c -6.85624,0 -6.86874,-2.1e-4 -6.86874,-0.11466 z"
     id="path4031"
     inkscape:connector-curvature="0"
     transform="matrix(111.11119,0,0,111.11119,-0.0592796,0)" />
  <path
     style="fill:#000000"
     d="m 563.44303,461.19799 c 0.0935,-0.0661 0.37497,-0.32734 0.62539,-0.58046 0.35079,-0.35456 0.50978,-0.57057 0.69261,-0.941 0.44034,-0.89213 0.42929,-0.77479 0.45383,-4.81806 0.023,-3.79427 -0.002,-4.36412 -0.22116,-5.00542 -0.39005,-1.14218 -1.38269,-2.13607 -2.52184,-2.52502 -0.52401,-0.17891 -1.23793,-0.25139 -1.79197,-0.18192 -0.25606,0.0321 -0.47262,0.0584 -0.48123,0.0584 -0.009,0 -0.0157,-0.59956 -0.0157,-1.33236 l 0,-1.33236 6.80354,0 6.80354,0 0,8.39103 0,8.39104 -5.25857,-0.002 -5.25857,-0.002 0.17009,-0.12025 0,0 z"
     id="path4033"
     inkscape:connector-curvature="0"
     transform="matrix(111.11119,0,0,111.11119,-0.0592796,0)" />
</svg>
